<svg width="1090" height="1008" viewBox="0 0 1090 1008" fill="none" xmlns="http://www.w3.org/2000/svg">
<g clip-path="url(#clip0_156_1790)">
<path d="M762.319 364.566L804.873 331.132" stroke="#EFEA3A" stroke-width="3"/>
<path d="M415.928 483.607L343.568 551.211C336.598 558.008 335.681 568.847 341.367 576.655L378.601 628.368C384.929 637.186 397.219 639.115 405.931 632.777L531.208 538.443" stroke="#EFEA3A" stroke-width="3"/>
<path d="M709.861 204.741L628.33 273.631" stroke="#EFEA3A" stroke-width="3"/>
<path d="M337.883 574.084C321.284 585.29 295.146 620.47 309.728 639.484C332.656 669.428 383.005 632.778 383.005 632.778" stroke="#EFEA3A" stroke-width="3"/>
<path d="M960.301 280.983C1007.59 220.519 996.979 133.11 936.609 85.7512C876.238 38.3919 788.965 49.0159 741.68 109.481C694.394 169.945 705.002 257.354 765.372 304.713C825.743 352.072 913.016 341.448 960.301 280.983Z" stroke="#EFEA3A" stroke-width="3"/>
<path d="M758.466 80.2783L948.124 309.728" stroke="#EFEA3A" stroke-width="3"/>
<path d="M736.709 681.456L510.815 761.574C504.608 763.775 501.358 770.6 503.556 776.816L525.475 838.811C527.673 845.027 534.487 848.282 540.694 846.081L766.588 765.963C772.795 763.761 776.045 756.937 773.847 750.721L751.928 688.726C749.73 682.51 742.916 679.255 736.709 681.456Z" stroke="#EFEA3A" stroke-width="3"/>
<path d="M614.573 1008L563.766 839.081" stroke="#EFEA3A" stroke-width="3"/>
<path d="M795.334 949.032L741.774 773.316" stroke="#EFEA3A" stroke-width="3"/>
<path d="M762.319 364.566L804.873 331.132" stroke="white" stroke-width="6"/>
<path d="M415.928 483.607L343.568 551.211C336.598 558.008 335.681 568.847 341.367 576.655L378.601 628.368C384.929 637.186 397.219 639.115 405.931 632.777L531.208 538.443" stroke="white" stroke-width="6"/>
<path d="M709.861 204.741L628.33 273.631" stroke="white" stroke-width="6"/>
<path d="M337.883 574.084C321.284 585.29 295.146 620.47 309.728 639.484C332.656 669.428 383.005 632.778 383.005 632.778" stroke="white" stroke-width="6"/>
<path d="M960.301 280.983C1007.59 220.519 996.979 133.11 936.609 85.7512C876.238 38.3919 788.965 49.0159 741.68 109.481C694.394 169.945 705.002 257.354 765.372 304.713C825.743 352.072 913.016 341.448 960.301 280.983Z" stroke="white" stroke-width="6"/>
<path d="M758.466 80.2783L948.124 309.728" stroke="white" stroke-width="6"/>
<path d="M736.709 681.456L510.815 761.574C504.608 763.775 501.358 770.6 503.556 776.816L525.475 838.811C527.673 845.027 534.487 848.282 540.694 846.081L766.588 765.963C772.795 763.761 776.045 756.937 773.847 750.721L751.928 688.726C749.73 682.51 742.916 679.255 736.709 681.456Z" stroke="white" stroke-width="6"/>
<path d="M614.573 1008L563.766 839.081" stroke="white" stroke-width="6"/>
<path d="M795.334 949.032L741.774 773.316" stroke="white" stroke-width="6"/>
<path d="M1000.49 966.757L927.397 893.642" stroke="white" stroke-width="8" stroke-miterlimit="10"/>
<path d="M1051.21 810.24L978.206 755.403" stroke="white" stroke-width="8" stroke-miterlimit="10"/>
<path d="M995.358 553.511L892 564.901" stroke="white" stroke-width="8" stroke-miterlimit="10"/>
<path d="M1017 402.593L956.745 416.922" stroke="white" stroke-width="8" stroke-miterlimit="10"/>
<path d="M604.761 70.3594L608.796 139.433" stroke="white" stroke-width="8" stroke-miterlimit="10"/>
<path d="M391.625 98.8359L432.253 151.652" stroke="white" stroke-width="8" stroke-miterlimit="10"/>
<path d="M273.869 239.095L342.927 316.344" stroke="white" stroke-width="8" stroke-miterlimit="10"/>
<path d="M213.043 176.084L233.311 200.426" stroke="white" stroke-width="8" stroke-miterlimit="10"/>
<path d="M168.38 289.891L223.131 326.448" stroke="white" stroke-width="8" stroke-miterlimit="10"/>
<path d="M123.718 793.982L259.725 714.713" stroke="white" stroke-width="8" stroke-miterlimit="10"/>
<path d="M243.512 924.138L338.891 840.735" stroke="white" stroke-width="8" stroke-miterlimit="10"/>
<path d="M373.375 999.273L420.056 938.283" stroke="white" stroke-width="8" stroke-miterlimit="10"/>
<path d="M178.469 980.995L219.097 950.5" stroke="white" stroke-width="8" stroke-miterlimit="10"/>
<path d="M870.631 824.476L905.114 848.909" stroke="white" stroke-width="8" stroke-miterlimit="10"/>
<path d="M1046.99 559.296L1090 553.601" stroke="white" stroke-width="8" stroke-miterlimit="10"/>
<path d="M94.7383 553.51L198.096 564.9" stroke="white" stroke-width="8" stroke-miterlimit="10"/>
<path d="M73.0947 402.593L133.349 416.922" stroke="white" stroke-width="8" stroke-miterlimit="10"/>
<path d="M43.104 559.296L0 553.601" stroke="white" stroke-width="8" stroke-miterlimit="10"/>
<path d="M1000.49 966.757L927.397 893.642" stroke="#F9F6BB" stroke-width="5" stroke-miterlimit="10"/>
<path d="M1051.21 810.24L978.206 755.403" stroke="#F9F6BB" stroke-width="5" stroke-miterlimit="10"/>
<path d="M995.358 553.511L892 564.901" stroke="#F9F6BB" stroke-width="5" stroke-miterlimit="10"/>
<path d="M1017 402.593L956.745 416.922" stroke="#F9F6BB" stroke-width="5" stroke-miterlimit="10"/>
<path d="M604.761 70.3594L608.796 139.433" stroke="#F9F6BB" stroke-width="5" stroke-miterlimit="10"/>
<path d="M391.625 98.8359L432.253 151.652" stroke="#F9F6BB" stroke-width="5" stroke-miterlimit="10"/>
<path d="M273.869 239.095L342.927 316.344" stroke="#F9F6BB" stroke-width="5" stroke-miterlimit="10"/>
<path d="M213.043 176.084L233.311 200.426" stroke="#F9F6BB" stroke-width="5" stroke-miterlimit="10"/>
<path d="M168.38 289.891L223.131 326.448" stroke="#F9F6BB" stroke-width="5" stroke-miterlimit="10"/>
<path d="M123.718 793.982L259.725 714.713" stroke="#F9F6BB" stroke-width="5" stroke-miterlimit="10"/>
<path d="M243.512 924.138L338.891 840.735" stroke="#F9F6BB" stroke-width="5" stroke-miterlimit="10"/>
<path d="M373.375 999.273L420.056 938.283" stroke="#F9F6BB" stroke-width="5" stroke-miterlimit="10"/>
<path d="M178.469 980.995L219.097 950.5" stroke="#F9F6BB" stroke-width="5" stroke-miterlimit="10"/>
<path d="M870.631 824.476L905.114 848.909" stroke="#F9F6BB" stroke-width="5" stroke-miterlimit="10"/>
<path d="M1046.99 559.296L1090 553.601" stroke="#F9F6BB" stroke-width="5" stroke-miterlimit="10"/>
<path d="M94.7383 553.51L198.096 564.9" stroke="#F9F6BB" stroke-width="5" stroke-miterlimit="10"/>
<path d="M73.0947 402.593L133.349 416.922" stroke="#F9F6BB" stroke-width="5" stroke-miterlimit="10"/>
<path d="M43.104 559.296L0 553.601" stroke="#F9F6BB" stroke-width="5" stroke-miterlimit="10"/>
<path d="M379.794 501.521C369.339 459.268 370.715 420.782 389.883 412.699C415.929 401.676 424.182 356.393 470.863 346.748C488.655 343.992 490.031 308.261 528.457 299.995C549.001 297.239 568.535 249.291 603.935 258.752C625.487 264.539 656.027 309.547 656.027 309.547" stroke="white" stroke-width="3"/>
<path d="M535.335 745.206C535.335 745.206 528.457 716.364 512.041 703.963C502.503 696.799 473.064 664.099 445.184 626.99" stroke="white" stroke-width="3"/>
<path d="M708.852 683.665L692.803 634.616" stroke="white" stroke-width="3"/>
<path d="M664.372 665.756C688.308 643.986 754.615 554.613 770.94 501.246C787.264 447.879 762.227 365.119 750.305 334.624C738.382 304.129 716.372 304.129 692.619 307.435C663.546 311.477 615.398 309.915 593.663 309.915C571.927 309.915 559.638 336.92 573.028 355.383C594.855 385.419 648.506 385.052 702.432 374.948" stroke="white" stroke-width="3"/>
<path d="M508.19 527.697C486.913 541.934 458.574 547.261 438.123 516.123C422.624 495.272 410.885 475.064 410.885 475.064" stroke="white" stroke-width="3"/>
<path d="M448.762 433.639C467.379 460.276 504.522 518.879 514.335 530.452C534.695 554.426 596.783 503.815 581.742 481.586C569.545 463.583 519.654 393.683 519.654 393.683" stroke="white" stroke-width="3"/>
<path d="M583.025 491.784C608.888 491.508 647.59 454.675 635.3 436.672C623.103 418.668 587.611 371.088 587.611 371.088" stroke="white" stroke-width="3"/>
<path d="M640.345 438.508C660.429 436.12 681.981 409.758 678.13 379.539" stroke="white" stroke-width="3"/>
<path d="M576.88 514.011C605.127 531.004 604.301 589.239 588.986 614.315" stroke="white" stroke-width="3"/>
<path d="M379.794 501.521C369.339 459.268 370.715 420.781 389.883 412.698C415.929 401.676 424.182 356.392 470.863 346.747C488.655 343.992 490.031 308.261 528.457 299.994C549.001 297.238 568.535 249.291 603.935 258.752C625.487 264.539 656.027 309.547 656.027 309.547" stroke="#D6EDF1" stroke-width="5"/>
<path d="M535.336 745.207C535.336 745.207 528.458 716.365 512.042 703.964C502.504 696.8 473.065 664.1 445.185 626.991" stroke="#D6EDF1" stroke-width="5"/>
<path d="M708.854 683.665L692.805 634.616" stroke="#D6EDF1" stroke-width="5"/>
<path d="M664.371 665.755C688.307 643.985 754.614 554.612 770.939 501.245C787.263 447.878 762.226 365.118 750.304 334.623C738.381 304.128 716.371 304.128 692.618 307.434C663.545 311.476 615.397 309.914 593.662 309.914C571.926 309.914 559.637 336.919 573.027 355.382C594.854 385.418 648.505 385.051 702.431 374.947" stroke="#D6EDF1" stroke-width="5"/>
<path d="M508.19 527.698C486.913 541.935 458.574 547.263 438.123 516.124C422.624 495.274 410.885 475.066 410.885 475.066" stroke="#D6EDF1" stroke-width="5"/>
<path d="M448.761 433.64C467.378 460.278 504.521 518.88 514.334 530.454C534.694 554.428 596.782 503.816 581.741 481.588C569.544 463.585 519.653 393.684 519.653 393.684" stroke="#D6EDF1" stroke-width="6"/>
<path d="M583.024 491.783C608.887 491.507 647.589 454.674 635.299 436.671C623.102 418.668 587.61 371.087 587.61 371.087" stroke="#D6EDF1" stroke-width="6"/>
<path d="M640.344 438.51C660.428 436.122 681.98 409.76 678.129 379.54" stroke="#D6EDF1" stroke-width="6"/>
<path d="M576.88 514.013C605.127 531.006 604.301 589.241 588.986 614.317" stroke="#D6EDF1" stroke-width="6"/>
</g>
<defs>
<clipPath id="clip0_156_1790">
<rect width="1090" height="1008" fill="white"/>
</clipPath>
</defs>
</svg>
