<svg width="286" height="250" viewBox="0 0 286 250" fill="none" xmlns="http://www.w3.org/2000/svg">
<rect width="286" height="250" rx="28" fill="white"/>
<path d="M27.0671 34.8333C26.9569 34.8328 26.8478 34.8105 26.7462 34.7676C26.6447 34.7246 26.5526 34.662 26.4755 34.5833L21.5421 29.6249C21.3869 29.4688 21.2998 29.2576 21.2998 29.0374C21.2998 28.8173 21.3869 28.6061 21.5421 28.4499L26.4755 23.5083C26.5532 23.4306 26.6454 23.3689 26.7469 23.3269C26.8484 23.2848 26.9572 23.2632 27.0671 23.2632C27.177 23.2632 27.2858 23.2848 27.3873 23.3269C27.4889 23.3689 27.5811 23.4306 27.6588 23.5083C27.7365 23.586 27.7981 23.6782 27.8402 23.7797C27.8822 23.8812 27.9039 23.99 27.9039 24.0999C27.9039 24.2098 27.8822 24.3186 27.8402 24.4201C27.7981 24.5217 27.7365 24.6139 27.6588 24.6916L23.3338 28.9999L27.6838 33.3499C27.8274 33.4622 27.9302 33.6186 27.9765 33.7949C28.0228 33.9713 28.0099 34.1579 27.9399 34.3263C27.8699 34.4946 27.7467 34.6354 27.589 34.7269C27.4314 34.8185 27.248 34.8559 27.0671 34.8333Z" fill="#EE96FF"/>
<path d="M86.124 35V34.184L90.78 29.624C91.2067 29.208 91.5267 28.8453 91.74 28.536C91.9533 28.216 92.0973 27.9173 92.172 27.64C92.2467 27.3627 92.284 27.1013 92.284 26.856C92.284 26.2053 92.06 25.6933 91.612 25.32C91.1747 24.9467 90.524 24.76 89.66 24.76C88.9987 24.76 88.412 24.8613 87.9 25.064C87.3987 25.2667 86.9667 25.5813 86.604 26.008L85.788 25.304C86.2253 24.792 86.7853 24.3973 87.468 24.12C88.1507 23.8427 88.9133 23.704 89.756 23.704C90.5133 23.704 91.1693 23.8267 91.724 24.072C92.2787 24.3067 92.7053 24.6533 93.004 25.112C93.3133 25.5707 93.468 26.1093 93.468 26.728C93.468 27.0907 93.4147 27.448 93.308 27.8C93.212 28.152 93.0307 28.5253 92.764 28.92C92.508 29.304 92.1293 29.7413 91.628 30.232L87.356 34.424L87.036 33.976H93.98V35H86.124ZM99.8585 35.096C98.9945 35.096 98.2265 34.872 97.5545 34.424C96.8825 33.9653 96.3545 33.3147 95.9705 32.472C95.5865 31.6187 95.3945 30.5947 95.3945 29.4C95.3945 28.2053 95.5865 27.1867 95.9705 26.344C96.3545 25.4907 96.8825 24.84 97.5545 24.392C98.2265 23.9333 98.9945 23.704 99.8585 23.704C100.723 23.704 101.491 23.9333 102.163 24.392C102.835 24.84 103.363 25.4907 103.747 26.344C104.141 27.1867 104.339 28.2053 104.339 29.4C104.339 30.5947 104.141 31.6187 103.747 32.472C103.363 33.3147 102.835 33.9653 102.163 34.424C101.491 34.872 100.723 35.096 99.8585 35.096ZM99.8585 34.04C100.52 34.04 101.096 33.864 101.587 33.512C102.077 33.1493 102.461 32.6267 102.739 31.944C103.016 31.2507 103.155 30.4027 103.155 29.4C103.155 28.3973 103.016 27.5547 102.739 26.872C102.461 26.1787 102.077 25.656 101.587 25.304C101.096 24.9413 100.52 24.76 99.8585 24.76C99.2185 24.76 98.6478 24.9413 98.1465 25.304C97.6452 25.656 97.2558 26.1787 96.9785 26.872C96.7012 27.5547 96.5625 28.3973 96.5625 29.4C96.5625 30.4027 96.7012 31.2507 96.9785 31.944C97.2558 32.6267 97.6452 33.1493 98.1465 33.512C98.6478 33.864 99.2185 34.04 99.8585 34.04ZM105.78 35V34.184L110.436 29.624C110.863 29.208 111.183 28.8453 111.396 28.536C111.61 28.216 111.754 27.9173 111.828 27.64C111.903 27.3627 111.94 27.1013 111.94 26.856C111.94 26.2053 111.716 25.6933 111.268 25.32C110.831 24.9467 110.18 24.76 109.316 24.76C108.655 24.76 108.068 24.8613 107.556 25.064C107.055 25.2667 106.623 25.5813 106.26 26.008L105.444 25.304C105.882 24.792 106.442 24.3973 107.124 24.12C107.807 23.8427 108.57 23.704 109.412 23.704C110.17 23.704 110.826 23.8267 111.38 24.072C111.935 24.3067 112.362 24.6533 112.66 25.112C112.97 25.5707 113.124 26.1093 113.124 26.728C113.124 27.0907 113.071 27.448 112.964 27.8C112.868 28.152 112.687 28.5253 112.42 28.92C112.164 29.304 111.786 29.7413 111.284 30.232L107.012 34.424L106.692 33.976H113.636V35H105.78ZM118.618 35.096C117.818 35.096 117.055 34.968 116.33 34.712C115.605 34.4453 115.029 34.0933 114.602 33.656L115.162 32.744C115.514 33.1173 115.994 33.4267 116.602 33.672C117.221 33.9173 117.887 34.04 118.602 34.04C119.551 34.04 120.271 33.832 120.762 33.416C121.263 32.9893 121.514 32.4347 121.514 31.752C121.514 31.272 121.397 30.8613 121.162 30.52C120.938 30.168 120.554 29.896 120.01 29.704C119.466 29.512 118.719 29.416 117.77 29.416H115.386L115.962 23.8H122.09V24.824H116.426L117.018 24.264L116.522 28.968L115.93 28.392H118.026C119.157 28.392 120.063 28.5307 120.746 28.808C121.429 29.0853 121.919 29.4747 122.218 29.976C122.527 30.4667 122.682 31.0427 122.682 31.704C122.682 32.3333 122.533 32.9093 122.234 33.432C121.935 33.944 121.487 34.3493 120.89 34.648C120.293 34.9467 119.535 35.096 118.618 35.096ZM129.324 35V23.8H130.3L135.42 32.536H134.908L139.98 23.8H140.956V35H139.82V25.576H140.092L135.42 33.576H134.86L130.156 25.576H130.46V35H129.324ZM149.629 35V33.144L149.581 32.84V29.736C149.581 29.0213 149.379 28.472 148.973 28.088C148.579 27.704 147.987 27.512 147.197 27.512C146.653 27.512 146.136 27.6027 145.645 27.784C145.155 27.9653 144.739 28.2053 144.397 28.504L143.885 27.656C144.312 27.2933 144.824 27.016 145.421 26.824C146.019 26.6213 146.648 26.52 147.309 26.52C148.397 26.52 149.235 26.792 149.821 27.336C150.419 27.8693 150.717 28.6853 150.717 29.784V35H149.629ZM146.733 35.08C146.104 35.08 145.555 34.9787 145.085 34.776C144.627 34.5627 144.275 34.2747 144.029 33.912C143.784 33.5387 143.661 33.112 143.661 32.632C143.661 32.1947 143.763 31.8 143.965 31.448C144.179 31.0853 144.52 30.7973 144.989 30.584C145.469 30.36 146.109 30.248 146.909 30.248H149.805V31.096H146.941C146.131 31.096 145.565 31.24 145.245 31.528C144.936 31.816 144.781 32.1733 144.781 32.6C144.781 33.08 144.968 33.464 145.341 33.752C145.715 34.04 146.237 34.184 146.909 34.184C147.549 34.184 148.099 34.04 148.557 33.752C149.027 33.4533 149.368 33.0267 149.581 32.472L149.837 33.256C149.624 33.8107 149.251 34.2533 148.717 34.584C148.195 34.9147 147.533 35.08 146.733 35.08ZM153.803 35V26.6H154.891V28.888L154.779 28.488C155.013 27.848 155.408 27.3627 155.963 27.032C156.517 26.6907 157.205 26.52 158.027 26.52V27.624C157.984 27.624 157.941 27.624 157.899 27.624C157.856 27.6133 157.813 27.608 157.771 27.608C156.885 27.608 156.192 27.88 155.691 28.424C155.189 28.9573 154.939 29.72 154.939 30.712V35H153.803ZM163.51 35.08C162.678 35.08 161.931 34.8987 161.27 34.536C160.619 34.1627 160.107 33.656 159.734 33.016C159.36 32.3653 159.174 31.624 159.174 30.792C159.174 29.9493 159.36 29.208 159.734 28.568C160.107 27.928 160.619 27.4267 161.27 27.064C161.931 26.7013 162.678 26.52 163.51 26.52C164.224 26.52 164.87 26.6587 165.446 26.936C166.022 27.2133 166.475 27.6293 166.806 28.184L165.958 28.76C165.67 28.3333 165.312 28.0187 164.886 27.816C164.459 27.6133 163.995 27.512 163.494 27.512C162.896 27.512 162.358 27.6507 161.878 27.928C161.398 28.1947 161.019 28.5733 160.742 29.064C160.464 29.5547 160.326 30.1307 160.326 30.792C160.326 31.4533 160.464 32.0293 160.742 32.52C161.019 33.0107 161.398 33.3947 161.878 33.672C162.358 33.9387 162.896 34.072 163.494 34.072C163.995 34.072 164.459 33.9707 164.886 33.768C165.312 33.5653 165.67 33.256 165.958 32.84L166.806 33.416C166.475 33.96 166.022 34.376 165.446 34.664C164.87 34.9413 164.224 35.08 163.51 35.08ZM168.912 35V23.128H170.048V28.904L169.824 28.472C170.091 27.864 170.517 27.3893 171.104 27.048C171.691 26.696 172.389 26.52 173.2 26.52C173.883 26.52 174.48 26.6533 174.992 26.92C175.515 27.176 175.92 27.5707 176.208 28.104C176.507 28.6373 176.656 29.3093 176.656 30.12V35H175.52V30.232C175.52 29.3467 175.296 28.68 174.848 28.232C174.411 27.7733 173.792 27.544 172.992 27.544C172.395 27.544 171.872 27.6667 171.424 27.912C170.987 28.1467 170.645 28.4933 170.4 28.952C170.165 29.4 170.048 29.944 170.048 30.584V35H168.912ZM182.952 35V34.184L187.608 29.624C188.035 29.208 188.355 28.8453 188.568 28.536C188.781 28.216 188.925 27.9173 189 27.64C189.075 27.3627 189.112 27.1013 189.112 26.856C189.112 26.2053 188.888 25.6933 188.44 25.32C188.003 24.9467 187.352 24.76 186.488 24.76C185.827 24.76 185.24 24.8613 184.728 25.064C184.227 25.2667 183.795 25.5813 183.432 26.008L182.616 25.304C183.053 24.792 183.613 24.3973 184.296 24.12C184.979 23.8427 185.741 23.704 186.584 23.704C187.341 23.704 187.997 23.8267 188.552 24.072C189.107 24.3067 189.533 24.6533 189.832 25.112C190.141 25.5707 190.296 26.1093 190.296 26.728C190.296 27.0907 190.243 27.448 190.136 27.8C190.04 28.152 189.859 28.5253 189.592 28.92C189.336 29.304 188.957 29.7413 188.456 30.232L184.184 34.424L183.864 33.976H190.808V35H182.952ZM195.598 35.096C194.787 35.096 194.019 34.968 193.294 34.712C192.579 34.4453 192.003 34.0933 191.566 33.656L192.126 32.744C192.489 33.1173 192.974 33.4267 193.582 33.672C194.201 33.9173 194.873 34.04 195.598 34.04C196.526 34.04 197.235 33.8373 197.726 33.432C198.227 33.0267 198.478 32.4827 198.478 31.8C198.478 31.1173 198.233 30.5733 197.742 30.168C197.262 29.7627 196.499 29.56 195.454 29.56H194.654V28.712L198.11 24.376L198.27 24.824H192.03V23.8H199.23V24.616L195.774 28.952L195.214 28.584H195.646C196.99 28.584 197.993 28.8827 198.654 29.48C199.326 30.0773 199.662 30.8453 199.662 31.784C199.662 32.4133 199.513 32.9787 199.214 33.48C198.915 33.9813 198.462 34.376 197.854 34.664C197.257 34.952 196.505 35.096 195.598 35.096Z" fill="#333333"/>
<path d="M259.558 34.8333C259.448 34.8329 259.339 34.8105 259.237 34.7676C259.136 34.7247 259.043 34.6621 258.966 34.5833C258.811 34.4272 258.724 34.216 258.724 33.9958C258.724 33.7757 258.811 33.5644 258.966 33.4083L263.316 29L258.966 24.6916C258.889 24.6129 258.827 24.5195 258.786 24.417C258.744 24.3145 258.723 24.2047 258.724 24.0941C258.724 23.9834 258.747 23.874 258.79 23.7721C258.833 23.6701 258.896 23.5777 258.975 23.5C259.053 23.4223 259.147 23.3609 259.249 23.3192C259.352 23.2776 259.462 23.2566 259.572 23.2573C259.683 23.2581 259.792 23.2807 259.894 23.3237C259.996 23.3668 260.089 23.4295 260.166 23.5083L265.1 28.45C265.255 28.6061 265.342 28.8173 265.342 29.0375C265.342 29.2576 265.255 29.4688 265.1 29.625L260.166 34.5583C260.089 34.6436 259.996 34.7121 259.891 34.7594C259.786 34.8067 259.673 34.8319 259.558 34.8333Z" fill="#EE96FF"/>
<rect x="10" y="48" width="38" height="32" rx="6" fill="white"/>
<path d="M23.412 70.096C22.58 70.096 21.78 69.9627 21.012 69.696C20.2547 69.4187 19.668 69.0667 19.252 68.64L19.716 67.728C20.1107 68.112 20.6387 68.4373 21.3 68.704C21.972 68.96 22.676 69.088 23.412 69.088C24.116 69.088 24.6867 69.0027 25.124 68.832C25.572 68.6507 25.8973 68.4107 26.1 68.112C26.3133 67.8133 26.42 67.4827 26.42 67.12C26.42 66.6827 26.292 66.3307 26.036 66.064C25.7907 65.7973 25.4653 65.5893 25.06 65.44C24.6547 65.28 24.2067 65.1413 23.716 65.024C23.2253 64.9067 22.7347 64.784 22.244 64.656C21.7533 64.5173 21.3 64.336 20.884 64.112C20.4787 63.888 20.148 63.5947 19.892 63.232C19.6467 62.8587 19.524 62.3733 19.524 61.776C19.524 61.2213 19.668 60.7147 19.956 60.256C20.2547 59.7867 20.708 59.4133 21.316 59.136C21.924 58.848 22.7027 58.704 23.652 58.704C24.2813 58.704 24.9053 58.7947 25.524 58.976C26.1427 59.1467 26.676 59.3867 27.124 59.696L26.724 60.64C26.244 60.32 25.732 60.0853 25.188 59.936C24.6547 59.7867 24.1373 59.712 23.636 59.712C22.964 59.712 22.4093 59.8027 21.972 59.984C21.5347 60.1653 21.2093 60.4107 20.996 60.72C20.7933 61.0187 20.692 61.36 20.692 61.744C20.692 62.1813 20.8147 62.5333 21.06 62.8C21.316 63.0667 21.6467 63.2747 22.052 63.424C22.468 63.5733 22.9213 63.7067 23.412 63.824C23.9027 63.9413 24.388 64.0693 24.868 64.208C25.3587 64.3467 25.8067 64.528 26.212 64.752C26.628 64.9653 26.9587 65.2533 27.204 65.616C27.46 65.9787 27.588 66.4533 27.588 67.04C27.588 67.584 27.4387 68.0907 27.14 68.56C26.8413 69.0187 26.3827 69.392 25.764 69.68C25.156 69.9573 24.372 70.096 23.412 70.096ZM33.3998 70.08C32.6851 70.08 32.0611 69.9467 31.5278 69.68C30.9944 69.4133 30.5784 69.0133 30.2798 68.48C29.9918 67.9467 29.8478 67.28 29.8478 66.48V61.6H30.9838V66.352C30.9838 67.248 31.2024 67.9253 31.6398 68.384C32.0878 68.832 32.7118 69.056 33.5118 69.056C34.0984 69.056 34.6051 68.9387 35.0318 68.704C35.4691 68.4587 35.7998 68.1067 36.0238 67.648C36.2584 67.1893 36.3758 66.64 36.3758 66V61.6H37.5118V70H36.4237V67.696L36.5998 68.112C36.3331 68.7307 35.9171 69.216 35.3518 69.568C34.7971 69.9093 34.1464 70.08 33.3998 70.08Z" fill="#6C6C6C"/>
<rect x="48" y="48" width="38" height="32" rx="6" fill="white"/>
<path d="M55.824 70V58.8H56.8L61.92 67.536H61.408L66.48 58.8H67.456V70H66.32V60.576H66.592L61.92 68.576H61.36L56.656 60.576H56.96V70H55.824ZM74.2893 70.08C73.4786 70.08 72.7479 69.8987 72.0973 69.536C71.4573 69.1627 70.9506 68.656 70.5773 68.016C70.2039 67.3653 70.0173 66.624 70.0173 65.792C70.0173 64.9493 70.2039 64.208 70.5773 63.568C70.9506 62.928 71.4573 62.4267 72.0973 62.064C72.7373 61.7013 73.4679 61.52 74.2893 61.52C75.1213 61.52 75.8573 61.7013 76.4973 62.064C77.1479 62.4267 77.6546 62.928 78.0173 63.568C78.3906 64.208 78.5773 64.9493 78.5773 65.792C78.5773 66.624 78.3906 67.3653 78.0173 68.016C77.6546 68.656 77.1479 69.1627 76.4973 69.536C75.8466 69.8987 75.1106 70.08 74.2893 70.08ZM74.2893 69.072C74.8973 69.072 75.4359 68.9387 75.9053 68.672C76.3746 68.3947 76.7426 68.0107 77.0093 67.52C77.2866 67.0187 77.4253 66.4427 77.4253 65.792C77.4253 65.1307 77.2866 64.5547 77.0093 64.064C76.7426 63.5733 76.3746 63.1947 75.9053 62.928C75.4359 62.6507 74.9026 62.512 74.3053 62.512C73.7079 62.512 73.1746 62.6507 72.7053 62.928C72.2359 63.1947 71.8626 63.5733 71.5853 64.064C71.3079 64.5547 71.1693 65.1307 71.1693 65.792C71.1693 66.4427 71.3079 67.0187 71.5853 67.52C71.8626 68.0107 72.2359 68.3947 72.7053 68.672C73.1746 68.9387 73.7026 69.072 74.2893 69.072Z" fill="#6C6C6C"/>
<rect x="86" y="48" width="38" height="32" rx="6" fill="white"/>
<path d="M99 70V59.824H95.064V58.8H104.12V59.824H100.184V70H99ZM109.025 70.08C108.31 70.08 107.686 69.9467 107.153 69.68C106.619 69.4133 106.203 69.0133 105.905 68.48C105.617 67.9467 105.473 67.28 105.473 66.48V61.6H106.609V66.352C106.609 67.248 106.827 67.9253 107.265 68.384C107.713 68.832 108.337 69.056 109.137 69.056C109.723 69.056 110.23 68.9387 110.657 68.704C111.094 68.4587 111.425 68.1067 111.649 67.648C111.883 67.1893 112.001 66.64 112.001 66V61.6H113.137V70H112.049V67.696L112.225 68.112C111.958 68.7307 111.542 69.216 110.977 69.568C110.422 69.9093 109.771 70.08 109.025 70.08Z" fill="#6C6C6C"/>
<rect x="124" y="48" width="38" height="32" rx="6" fill="white"/>
<path d="M133.868 70L130.092 58.8H131.308L134.844 69.344H134.236L137.884 58.8H138.972L142.572 69.344H141.996L145.564 58.8H146.7L142.924 70H141.676L138.236 60H138.556L135.1 70H133.868ZM151.558 70.08C150.684 70.08 149.916 69.8987 149.254 69.536C148.593 69.1627 148.076 68.656 147.702 68.016C147.329 67.3653 147.142 66.624 147.142 65.792C147.142 64.96 147.318 64.224 147.67 63.584C148.033 62.944 148.524 62.4427 149.142 62.08C149.772 61.7067 150.476 61.52 151.254 61.52C152.044 61.52 152.742 61.7013 153.35 62.064C153.969 62.416 154.454 62.9173 154.806 63.568C155.158 64.208 155.334 64.9493 155.334 65.792C155.334 65.8453 155.329 65.904 155.318 65.968C155.318 66.0213 155.318 66.08 155.318 66.144H148.006V65.296H154.71L154.262 65.632C154.262 65.024 154.129 64.4853 153.862 64.016C153.606 63.536 153.254 63.1627 152.806 62.896C152.358 62.6293 151.841 62.496 151.254 62.496C150.678 62.496 150.161 62.6293 149.702 62.896C149.244 63.1627 148.886 63.536 148.63 64.016C148.374 64.496 148.246 65.0453 148.246 65.664V65.84C148.246 66.48 148.385 67.0453 148.662 67.536C148.95 68.016 149.345 68.3947 149.846 68.672C150.358 68.9387 150.94 69.072 151.59 69.072C152.102 69.072 152.577 68.9813 153.014 68.8C153.462 68.6187 153.846 68.3413 154.166 67.968L154.806 68.704C154.433 69.152 153.964 69.4933 153.398 69.728C152.844 69.9627 152.23 70.08 151.558 70.08Z" fill="#6C6C6C"/>
<rect x="162" y="48" width="38" height="32" rx="6" fill="white"/>
<path d="M175 70V59.824H171.064V58.8H180.12V59.824H176.184V70H175ZM181.772 70V58.128H182.908V63.904L182.684 63.472C182.95 62.864 183.377 62.3893 183.964 62.048C184.55 61.696 185.249 61.52 186.06 61.52C186.742 61.52 187.34 61.6533 187.852 61.92C188.374 62.176 188.78 62.5707 189.068 63.104C189.366 63.6373 189.516 64.3093 189.516 65.12V70H188.38V65.232C188.38 64.3467 188.156 63.68 187.708 63.232C187.27 62.7733 186.652 62.544 185.852 62.544C185.254 62.544 184.732 62.6667 184.284 62.912C183.846 63.1467 183.505 63.4933 183.26 63.952C183.025 64.4 182.908 64.944 182.908 65.584V70H181.772Z" fill="#6C6C6C"/>
<rect x="200" y="48" width="38" height="32" rx="6" fill="white"/>
<path d="M212.324 70V58.8H220.004V59.824H213.508V70H212.324ZM213.38 65.248V64.224H219.3V65.248H213.38ZM222.053 70V61.6H223.141V63.888L223.029 63.488C223.263 62.848 223.658 62.3627 224.213 62.032C224.767 61.6907 225.455 61.52 226.277 61.52V62.624C226.234 62.624 226.191 62.624 226.149 62.624C226.106 62.6133 226.063 62.608 226.021 62.608C225.135 62.608 224.442 62.88 223.941 63.424C223.439 63.9573 223.189 64.72 223.189 65.712V70H222.053Z" fill="#6C6C6C"/>
<rect x="238" y="48" width="38" height="32" rx="6" fill="white"/>
<path d="M251.912 70.096C251.08 70.096 250.28 69.9627 249.512 69.696C248.755 69.4187 248.168 69.0667 247.752 68.64L248.216 67.728C248.611 68.112 249.139 68.4373 249.8 68.704C250.472 68.96 251.176 69.088 251.912 69.088C252.616 69.088 253.187 69.0027 253.624 68.832C254.072 68.6507 254.397 68.4107 254.6 68.112C254.813 67.8133 254.92 67.4827 254.92 67.12C254.92 66.6827 254.792 66.3307 254.536 66.064C254.291 65.7973 253.965 65.5893 253.56 65.44C253.155 65.28 252.707 65.1413 252.216 65.024C251.725 64.9067 251.235 64.784 250.744 64.656C250.253 64.5173 249.8 64.336 249.384 64.112C248.979 63.888 248.648 63.5947 248.392 63.232C248.147 62.8587 248.024 62.3733 248.024 61.776C248.024 61.2213 248.168 60.7147 248.456 60.256C248.755 59.7867 249.208 59.4133 249.816 59.136C250.424 58.848 251.203 58.704 252.152 58.704C252.781 58.704 253.405 58.7947 254.024 58.976C254.643 59.1467 255.176 59.3867 255.624 59.696L255.224 60.64C254.744 60.32 254.232 60.0853 253.688 59.936C253.155 59.7867 252.637 59.712 252.136 59.712C251.464 59.712 250.909 59.8027 250.472 59.984C250.035 60.1653 249.709 60.4107 249.496 60.72C249.293 61.0187 249.192 61.36 249.192 61.744C249.192 62.1813 249.315 62.5333 249.56 62.8C249.816 63.0667 250.147 63.2747 250.552 63.424C250.968 63.5733 251.421 63.7067 251.912 63.824C252.403 63.9413 252.888 64.0693 253.368 64.208C253.859 64.3467 254.307 64.528 254.712 64.752C255.128 64.9653 255.459 65.2533 255.704 65.616C255.96 65.9787 256.088 66.4533 256.088 67.04C256.088 67.584 255.939 68.0907 255.64 68.56C255.341 69.0187 254.883 69.392 254.264 69.68C253.656 69.9573 252.872 70.096 251.912 70.096ZM263.692 70V68.144L263.644 67.84V64.736C263.644 64.0213 263.441 63.472 263.036 63.088C262.641 62.704 262.049 62.512 261.26 62.512C260.716 62.512 260.198 62.6027 259.708 62.784C259.217 62.9653 258.801 63.2053 258.46 63.504L257.948 62.656C258.374 62.2933 258.886 62.016 259.484 61.824C260.081 61.6213 260.71 61.52 261.372 61.52C262.46 61.52 263.297 61.792 263.884 62.336C264.481 62.8693 264.78 63.6853 264.78 64.784V70H263.692ZM260.796 70.08C260.166 70.08 259.617 69.9787 259.148 69.776C258.689 69.5627 258.337 69.2747 258.092 68.912C257.846 68.5387 257.724 68.112 257.724 67.632C257.724 67.1947 257.825 66.8 258.028 66.448C258.241 66.0853 258.582 65.7973 259.052 65.584C259.532 65.36 260.172 65.248 260.972 65.248H263.868V66.096H261.004C260.193 66.096 259.628 66.24 259.308 66.528C258.998 66.816 258.844 67.1733 258.844 67.6C258.844 68.08 259.03 68.464 259.404 68.752C259.777 69.04 260.3 69.184 260.972 69.184C261.612 69.184 262.161 69.04 262.62 68.752C263.089 68.4533 263.43 68.0267 263.644 67.472L263.9 68.256C263.686 68.8107 263.313 69.2533 262.78 69.584C262.257 69.9147 261.596 70.08 260.796 70.08Z" fill="#6C6C6C"/>
<rect x="10" y="80" width="38" height="32" rx="6" fill="white"/>
<path d="M20.124 102V101.184L24.78 96.624C25.2067 96.208 25.5267 95.8453 25.74 95.536C25.9533 95.216 26.0973 94.9173 26.172 94.64C26.2467 94.3627 26.284 94.1013 26.284 93.856C26.284 93.2053 26.06 92.6933 25.612 92.32C25.1747 91.9467 24.524 91.76 23.66 91.76C22.9987 91.76 22.412 91.8613 21.9 92.064C21.3987 92.2667 20.9667 92.5813 20.604 93.008L19.788 92.304C20.2253 91.792 20.7853 91.3973 21.468 91.12C22.1507 90.8427 22.9133 90.704 23.756 90.704C24.5133 90.704 25.1693 90.8267 25.724 91.072C26.2787 91.3067 26.7053 91.6533 27.004 92.112C27.3133 92.5707 27.468 93.1093 27.468 93.728C27.468 94.0907 27.4147 94.448 27.308 94.8C27.212 95.152 27.0307 95.5253 26.764 95.92C26.508 96.304 26.1293 96.7413 25.628 97.232L21.356 101.424L21.036 100.976H27.98V102H20.124ZM33.9865 102.096C32.9945 102.096 32.1572 101.877 31.4745 101.44C30.7918 100.992 30.2745 100.352 29.9225 99.52C29.5705 98.6773 29.3945 97.6693 29.3945 96.496C29.3945 95.2267 29.6078 94.1653 30.0345 93.312C30.4718 92.448 31.0745 91.7973 31.8425 91.36C32.6105 90.9227 33.5012 90.704 34.5145 90.704C35.0158 90.704 35.4958 90.752 35.9545 90.848C36.4132 90.944 36.8185 91.0987 37.1705 91.312L36.7065 92.24C36.4185 92.048 36.0878 91.9147 35.7145 91.84C35.3412 91.7547 34.9465 91.712 34.5305 91.712C33.3252 91.712 32.3598 92.096 31.6345 92.864C30.9198 93.632 30.5625 94.7787 30.5625 96.304C30.5625 96.5387 30.5732 96.832 30.5945 97.184C30.6265 97.5253 30.6905 97.8667 30.7865 98.208L30.3865 97.904C30.5038 97.3493 30.7332 96.88 31.0745 96.496C31.4158 96.1013 31.8425 95.8027 32.3545 95.6C32.8665 95.3973 33.4265 95.296 34.0345 95.296C34.7812 95.296 35.4372 95.4347 36.0025 95.712C36.5678 95.9893 37.0105 96.3787 37.3305 96.88C37.6505 97.3813 37.8105 97.9733 37.8105 98.656C37.8105 99.3493 37.6452 99.9573 37.3145 100.48C36.9838 100.992 36.5252 101.392 35.9385 101.68C35.3625 101.957 34.7118 102.096 33.9865 102.096ZM33.9385 101.12C34.4718 101.12 34.9412 101.024 35.3465 100.832C35.7625 100.629 36.0878 100.347 36.3225 99.984C36.5572 99.6107 36.6745 99.1787 36.6745 98.688C36.6745 97.952 36.4185 97.3653 35.9065 96.928C35.4052 96.4907 34.7225 96.272 33.8585 96.272C33.2825 96.272 32.7812 96.3787 32.3545 96.592C31.9278 96.8053 31.5918 97.0987 31.3465 97.472C31.1012 97.8347 30.9785 98.2507 30.9785 98.72C30.9785 99.1253 31.0905 99.5147 31.3145 99.888C31.5385 100.251 31.8692 100.549 32.3065 100.784C32.7545 101.008 33.2985 101.12 33.9385 101.12Z" fill="#EBEBEB"/>
<rect x="48" y="80" width="38" height="32" rx="6" fill="white"/>
<path d="M58.124 102V101.184L62.78 96.624C63.2067 96.208 63.5267 95.8453 63.74 95.536C63.9533 95.216 64.0973 94.9173 64.172 94.64C64.2467 94.3627 64.284 94.1013 64.284 93.856C64.284 93.2053 64.06 92.6933 63.612 92.32C63.1747 91.9467 62.524 91.76 61.66 91.76C60.9987 91.76 60.412 91.8613 59.9 92.064C59.3987 92.2667 58.9667 92.5813 58.604 93.008L57.788 92.304C58.2253 91.792 58.7853 91.3973 59.468 91.12C60.1507 90.8427 60.9133 90.704 61.756 90.704C62.5133 90.704 63.1693 90.8267 63.724 91.072C64.2787 91.3067 64.7053 91.6533 65.004 92.112C65.3133 92.5707 65.468 93.1093 65.468 93.728C65.468 94.0907 65.4147 94.448 65.308 94.8C65.212 95.152 65.0307 95.5253 64.764 95.92C64.508 96.304 64.1293 96.7413 63.628 97.232L59.356 101.424L59.036 100.976H65.98V102H58.124ZM69.3625 102L74.1945 91.312L74.5465 91.824H67.6185L68.2105 91.264V93.92H67.0745V90.8H75.2985V91.616L70.6105 102H69.3625Z" fill="#EBEBEB"/>
<rect x="86" y="80" width="38" height="32" rx="6" fill="white"/>
<path d="M95.624 102V101.184L100.28 96.624C100.707 96.208 101.027 95.8453 101.24 95.536C101.453 95.216 101.597 94.9173 101.672 94.64C101.747 94.3627 101.784 94.1013 101.784 93.856C101.784 93.2053 101.56 92.6933 101.112 92.32C100.675 91.9467 100.024 91.76 99.16 91.76C98.4987 91.76 97.912 91.8613 97.4 92.064C96.8987 92.2667 96.4667 92.5813 96.104 93.008L95.288 92.304C95.7253 91.792 96.2853 91.3973 96.968 91.12C97.6507 90.8427 98.4133 90.704 99.256 90.704C100.013 90.704 100.669 90.8267 101.224 91.072C101.779 91.3067 102.205 91.6533 102.504 92.112C102.813 92.5707 102.968 93.1093 102.968 93.728C102.968 94.0907 102.915 94.448 102.808 94.8C102.712 95.152 102.531 95.5253 102.264 95.92C102.008 96.304 101.629 96.7413 101.128 97.232L96.856 101.424L96.536 100.976H103.48V102H95.624ZM109.182 102.096C108.286 102.096 107.512 101.968 106.862 101.712C106.222 101.456 105.726 101.088 105.374 100.608C105.032 100.117 104.862 99.5413 104.862 98.88C104.862 98.24 105.027 97.696 105.358 97.248C105.699 96.7893 106.19 96.4373 106.83 96.192C107.48 95.9467 108.264 95.824 109.182 95.824C110.088 95.824 110.867 95.9467 111.518 96.192C112.168 96.4373 112.664 96.7893 113.006 97.248C113.358 97.696 113.534 98.24 113.534 98.88C113.534 99.5413 113.358 100.117 113.006 100.608C112.654 101.088 112.152 101.456 111.502 101.712C110.851 101.968 110.078 102.096 109.182 102.096ZM109.182 101.12C110.174 101.12 110.947 100.917 111.502 100.512C112.067 100.107 112.35 99.5573 112.35 98.864C112.35 98.1707 112.067 97.6267 111.502 97.232C110.947 96.8267 110.174 96.624 109.182 96.624C108.19 96.624 107.416 96.8267 106.862 97.232C106.307 97.6267 106.03 98.1707 106.03 98.864C106.03 99.5573 106.307 100.107 106.862 100.512C107.416 100.917 108.19 101.12 109.182 101.12ZM109.182 95.712C110.056 95.712 110.739 95.5307 111.23 95.168C111.72 94.8053 111.966 94.32 111.966 93.712C111.966 93.072 111.71 92.576 111.198 92.224C110.696 91.8613 110.024 91.68 109.182 91.68C108.339 91.68 107.667 91.8613 107.166 92.224C106.664 92.576 106.414 93.0667 106.414 93.696C106.414 94.3147 106.654 94.8053 107.134 95.168C107.624 95.5307 108.307 95.712 109.182 95.712ZM109.182 96.48C108.35 96.48 107.64 96.368 107.054 96.144C106.478 95.92 106.035 95.6 105.726 95.184C105.416 94.7573 105.262 94.2507 105.262 93.664C105.262 93.0453 105.422 92.5173 105.742 92.08C106.072 91.632 106.531 91.2907 107.118 91.056C107.704 90.8213 108.392 90.704 109.182 90.704C109.971 90.704 110.659 90.8213 111.246 91.056C111.843 91.2907 112.307 91.632 112.638 92.08C112.968 92.5173 113.134 93.0453 113.134 93.664C113.134 94.2507 112.979 94.7573 112.67 95.184C112.36 95.6 111.907 95.92 111.31 96.144C110.723 96.368 110.014 96.48 109.182 96.48Z" fill="#EBEBEB"/>
<rect x="124" y="80" width="38" height="32" rx="6" fill="white"/>
<path d="M142.784 102V91.28L143.296 91.824H140.144V90.8H143.936V102H142.784Z" fill="#333333"/>
<rect x="162" y="80" width="38" height="32" rx="6" fill="white"/>
<path d="M176.624 102V101.184L181.28 96.624C181.707 96.208 182.027 95.8453 182.24 95.536C182.453 95.216 182.597 94.9173 182.672 94.64C182.747 94.3627 182.784 94.1013 182.784 93.856C182.784 93.2053 182.56 92.6933 182.112 92.32C181.675 91.9467 181.024 91.76 180.16 91.76C179.499 91.76 178.912 91.8613 178.4 92.064C177.899 92.2667 177.467 92.5813 177.104 93.008L176.288 92.304C176.725 91.792 177.285 91.3973 177.968 91.12C178.651 90.8427 179.413 90.704 180.256 90.704C181.013 90.704 181.669 90.8267 182.224 91.072C182.779 91.3067 183.205 91.6533 183.504 92.112C183.813 92.5707 183.968 93.1093 183.968 93.728C183.968 94.0907 183.915 94.448 183.808 94.8C183.712 95.152 183.531 95.5253 183.264 95.92C183.008 96.304 182.629 96.7413 182.128 97.232L177.856 101.424L177.536 100.976H184.48V102H176.624Z" fill="#333333"/>
<rect x="200" y="80" width="38" height="32" rx="6" fill="white"/>
<path d="M218.176 102.096C217.365 102.096 216.597 101.968 215.872 101.712C215.157 101.445 214.581 101.093 214.144 100.656L214.704 99.744C215.067 100.117 215.552 100.427 216.16 100.672C216.779 100.917 217.451 101.04 218.176 101.04C219.104 101.04 219.813 100.837 220.304 100.432C220.805 100.027 221.056 99.4827 221.056 98.8C221.056 98.1173 220.811 97.5733 220.32 97.168C219.84 96.7627 219.077 96.56 218.032 96.56H217.232V95.712L220.688 91.376L220.848 91.824H214.608V90.8H221.808V91.616L218.352 95.952L217.792 95.584H218.224C219.568 95.584 220.571 95.8827 221.232 96.48C221.904 97.0773 222.24 97.8453 222.24 98.784C222.24 99.4133 222.091 99.9787 221.792 100.48C221.493 100.981 221.04 101.376 220.432 101.664C219.835 101.952 219.083 102.096 218.176 102.096Z" fill="#333333"/>
<rect x="238" y="80" width="38" height="32" rx="6" fill="white"/>
<path d="M252.14 99.056V98.224L258.076 90.8H259.356L253.468 98.224L252.844 98.032H261.852V99.056H252.14ZM258.46 102V99.056L258.492 98.032V95.44H259.612V102H258.46Z" fill="#333333"/>
<rect x="10" y="112" width="38" height="32" rx="6" fill="white"/>
<path d="M28.368 134.096C27.568 134.096 26.8053 133.968 26.08 133.712C25.3547 133.445 24.7787 133.093 24.352 132.656L24.912 131.744C25.264 132.117 25.744 132.427 26.352 132.672C26.9707 132.917 27.6373 133.04 28.352 133.04C29.3013 133.04 30.0213 132.832 30.512 132.416C31.0133 131.989 31.264 131.435 31.264 130.752C31.264 130.272 31.1467 129.861 30.912 129.52C30.688 129.168 30.304 128.896 29.76 128.704C29.216 128.512 28.4693 128.416 27.52 128.416H25.136L25.712 122.8H31.84V123.824H26.176L26.768 123.264L26.272 127.968L25.68 127.392H27.776C28.9067 127.392 29.8133 127.531 30.496 127.808C31.1787 128.085 31.6693 128.475 31.968 128.976C32.2773 129.467 32.432 130.043 32.432 130.704C32.432 131.333 32.2827 131.909 31.984 132.432C31.6853 132.944 31.2373 133.349 30.64 133.648C30.0427 133.947 29.2853 134.096 28.368 134.096Z" fill="#333333"/>
<rect x="48" y="112" width="38" height="32" rx="6" fill="white"/>
<path d="M67.424 134.096C66.432 134.096 65.5947 133.877 64.912 133.44C64.2293 132.992 63.712 132.352 63.36 131.52C63.008 130.677 62.832 129.669 62.832 128.496C62.832 127.227 63.0453 126.165 63.472 125.312C63.9093 124.448 64.512 123.797 65.28 123.36C66.048 122.923 66.9387 122.704 67.952 122.704C68.4533 122.704 68.9333 122.752 69.392 122.848C69.8507 122.944 70.256 123.099 70.608 123.312L70.144 124.24C69.856 124.048 69.5253 123.915 69.152 123.84C68.7787 123.755 68.384 123.712 67.968 123.712C66.7627 123.712 65.7973 124.096 65.072 124.864C64.3573 125.632 64 126.779 64 128.304C64 128.539 64.0107 128.832 64.032 129.184C64.064 129.525 64.128 129.867 64.224 130.208L63.824 129.904C63.9413 129.349 64.1707 128.88 64.512 128.496C64.8533 128.101 65.28 127.803 65.792 127.6C66.304 127.397 66.864 127.296 67.472 127.296C68.2187 127.296 68.8747 127.435 69.44 127.712C70.0053 127.989 70.448 128.379 70.768 128.88C71.088 129.381 71.248 129.973 71.248 130.656C71.248 131.349 71.0827 131.957 70.752 132.48C70.4213 132.992 69.9627 133.392 69.376 133.68C68.8 133.957 68.1493 134.096 67.424 134.096ZM67.376 133.12C67.9093 133.12 68.3787 133.024 68.784 132.832C69.2 132.629 69.5253 132.347 69.76 131.984C69.9947 131.611 70.112 131.179 70.112 130.688C70.112 129.952 69.856 129.365 69.344 128.928C68.8427 128.491 68.16 128.272 67.296 128.272C66.72 128.272 66.2187 128.379 65.792 128.592C65.3653 128.805 65.0293 129.099 64.784 129.472C64.5387 129.835 64.416 130.251 64.416 130.72C64.416 131.125 64.528 131.515 64.752 131.888C64.976 132.251 65.3067 132.549 65.744 132.784C66.192 133.008 66.736 133.12 67.376 133.12Z" fill="#333333"/>
<rect x="86" y="112" width="38" height="32" rx="6" fill="white"/>
<path d="M102.8 134L107.632 123.312L107.984 123.824H101.056L101.648 123.264V125.92H100.512V122.8H108.736V123.616L104.048 134H102.8Z" fill="#333333"/>
<rect x="124" y="112" width="38" height="32" rx="6" fill="white"/>
<path d="M142.588 134.096C141.692 134.096 140.919 133.968 140.268 133.712C139.628 133.456 139.132 133.088 138.78 132.608C138.439 132.117 138.268 131.541 138.268 130.88C138.268 130.24 138.433 129.696 138.764 129.248C139.105 128.789 139.596 128.437 140.236 128.192C140.887 127.947 141.671 127.824 142.588 127.824C143.495 127.824 144.273 127.947 144.924 128.192C145.575 128.437 146.071 128.789 146.412 129.248C146.764 129.696 146.94 130.24 146.94 130.88C146.94 131.541 146.764 132.117 146.412 132.608C146.06 133.088 145.559 133.456 144.908 133.712C144.257 133.968 143.484 134.096 142.588 134.096ZM142.588 133.12C143.58 133.12 144.353 132.917 144.908 132.512C145.473 132.107 145.756 131.557 145.756 130.864C145.756 130.171 145.473 129.627 144.908 129.232C144.353 128.827 143.58 128.624 142.588 128.624C141.596 128.624 140.823 128.827 140.268 129.232C139.713 129.627 139.436 130.171 139.436 130.864C139.436 131.557 139.713 132.107 140.268 132.512C140.823 132.917 141.596 133.12 142.588 133.12ZM142.588 127.712C143.463 127.712 144.145 127.531 144.636 127.168C145.127 126.805 145.372 126.32 145.372 125.712C145.372 125.072 145.116 124.576 144.604 124.224C144.103 123.861 143.431 123.68 142.588 123.68C141.745 123.68 141.073 123.861 140.572 124.224C140.071 124.576 139.82 125.067 139.82 125.696C139.82 126.315 140.06 126.805 140.54 127.168C141.031 127.531 141.713 127.712 142.588 127.712ZM142.588 128.48C141.756 128.48 141.047 128.368 140.46 128.144C139.884 127.92 139.441 127.6 139.132 127.184C138.823 126.757 138.668 126.251 138.668 125.664C138.668 125.045 138.828 124.517 139.148 124.08C139.479 123.632 139.937 123.291 140.524 123.056C141.111 122.821 141.799 122.704 142.588 122.704C143.377 122.704 144.065 122.821 144.652 123.056C145.249 123.291 145.713 123.632 146.044 124.08C146.375 124.517 146.54 125.045 146.54 125.664C146.54 126.251 146.385 126.757 146.076 127.184C145.767 127.6 145.313 127.92 144.716 128.144C144.129 128.368 143.42 128.48 142.588 128.48Z" fill="#333333"/>
<rect x="162" y="112" width="38" height="32" rx="6" fill="white"/>
<path d="M179.792 134.096C179.291 134.096 178.811 134.048 178.352 133.952C177.904 133.856 177.499 133.701 177.136 133.488L177.6 132.56C177.888 132.752 178.219 132.891 178.592 132.976C178.976 133.051 179.371 133.088 179.776 133.088C180.981 133.088 181.941 132.704 182.656 131.936C183.381 131.168 183.744 130.021 183.744 128.496C183.744 128.251 183.728 127.957 183.696 127.616C183.675 127.275 183.616 126.933 183.52 126.592L183.92 126.896C183.813 127.451 183.584 127.925 183.232 128.32C182.891 128.704 182.464 128.997 181.952 129.2C181.451 129.403 180.891 129.504 180.272 129.504C179.536 129.504 178.88 129.365 178.304 129.088C177.739 128.811 177.296 128.421 176.976 127.92C176.656 127.419 176.496 126.827 176.496 126.144C176.496 125.44 176.661 124.832 176.992 124.32C177.323 123.808 177.776 123.413 178.352 123.136C178.939 122.848 179.595 122.704 180.32 122.704C181.312 122.704 182.149 122.928 182.832 123.376C183.515 123.813 184.032 124.448 184.384 125.28C184.736 126.112 184.912 127.12 184.912 128.304C184.912 129.563 184.693 130.624 184.256 131.488C183.829 132.352 183.232 133.003 182.464 133.44C181.696 133.877 180.805 134.096 179.792 134.096ZM180.448 128.528C181.024 128.528 181.525 128.421 181.952 128.208C182.389 127.995 182.725 127.701 182.96 127.328C183.205 126.955 183.328 126.539 183.328 126.08C183.328 125.664 183.216 125.275 182.992 124.912C182.768 124.549 182.437 124.256 182 124.032C181.563 123.797 181.019 123.68 180.368 123.68C179.835 123.68 179.36 123.781 178.944 123.984C178.539 124.176 178.219 124.453 177.984 124.816C177.749 125.179 177.632 125.611 177.632 126.112C177.632 126.848 177.883 127.435 178.384 127.872C178.896 128.309 179.584 128.528 180.448 128.528Z" fill="#333333"/>
<rect x="200" y="112" width="38" height="32" rx="6" fill="white"/>
<path d="M213.284 134V123.28L213.796 123.824H210.644V122.8H214.436V134H213.284ZM221.577 134.096C220.713 134.096 219.945 133.872 219.273 133.424C218.601 132.965 218.073 132.315 217.689 131.472C217.305 130.619 217.113 129.595 217.113 128.4C217.113 127.205 217.305 126.187 217.689 125.344C218.073 124.491 218.601 123.84 219.273 123.392C219.945 122.933 220.713 122.704 221.577 122.704C222.441 122.704 223.209 122.933 223.881 123.392C224.553 123.84 225.081 124.491 225.465 125.344C225.86 126.187 226.057 127.205 226.057 128.4C226.057 129.595 225.86 130.619 225.465 131.472C225.081 132.315 224.553 132.965 223.881 133.424C223.209 133.872 222.441 134.096 221.577 134.096ZM221.577 133.04C222.239 133.04 222.815 132.864 223.305 132.512C223.796 132.149 224.18 131.627 224.457 130.944C224.735 130.251 224.873 129.403 224.873 128.4C224.873 127.397 224.735 126.555 224.457 125.872C224.18 125.179 223.796 124.656 223.305 124.304C222.815 123.941 222.239 123.76 221.577 123.76C220.937 123.76 220.367 123.941 219.865 124.304C219.364 124.656 218.975 125.179 218.697 125.872C218.42 126.555 218.281 127.397 218.281 128.4C218.281 129.403 218.42 130.251 218.697 130.944C218.975 131.627 219.364 132.149 219.865 132.512C220.367 132.864 220.937 133.04 221.577 133.04Z" fill="#333333"/>
<rect x="238" y="112" width="38" height="32" rx="6" fill="white"/>
<path d="M253.784 134V123.28L254.296 123.824H251.144V122.8H254.936V134H253.784ZM259.565 134V123.28L260.077 123.824H256.925V122.8H260.717V134H259.565Z" fill="#333333"/>
<rect x="10" y="144" width="38" height="32" rx="6" fill="white"/>
<path d="M24.284 166V155.28L24.796 155.824H21.644V154.8H25.436V166H24.284ZM27.9053 166V165.184L32.5613 160.624C32.9879 160.208 33.3079 159.845 33.5213 159.536C33.7346 159.216 33.8786 158.917 33.9533 158.64C34.0279 158.363 34.0653 158.101 34.0653 157.856C34.0653 157.205 33.8413 156.693 33.3933 156.32C32.9559 155.947 32.3053 155.76 31.4413 155.76C30.7799 155.76 30.1933 155.861 29.6813 156.064C29.1799 156.267 28.7479 156.581 28.3853 157.008L27.5693 156.304C28.0066 155.792 28.5666 155.397 29.2493 155.12C29.9319 154.843 30.6946 154.704 31.5373 154.704C32.2946 154.704 32.9506 154.827 33.5053 155.072C34.0599 155.307 34.4866 155.653 34.7853 156.112C35.0946 156.571 35.2493 157.109 35.2493 157.728C35.2493 158.091 35.1959 158.448 35.0893 158.8C34.9933 159.152 34.8119 159.525 34.5453 159.92C34.2893 160.304 33.9106 160.741 33.4093 161.232L29.1373 165.424L28.8173 164.976H35.7613V166H27.9053Z" fill="#333333"/>
<rect x="48" y="144" width="38" height="32" rx="6" fill="white"/>
<path d="M62.284 166V155.28L62.796 155.824H59.644V154.8H63.436V166H62.284ZM69.4573 166.096C68.6466 166.096 67.8786 165.968 67.1533 165.712C66.4386 165.445 65.8626 165.093 65.4253 164.656L65.9853 163.744C66.3479 164.117 66.8333 164.427 67.4413 164.672C68.0599 164.917 68.7319 165.04 69.4573 165.04C70.3853 165.04 71.0946 164.837 71.5853 164.432C72.0866 164.027 72.3373 163.483 72.3373 162.8C72.3373 162.117 72.0919 161.573 71.6013 161.168C71.1213 160.763 70.3586 160.56 69.3133 160.56H68.5133V159.712L71.9693 155.376L72.1293 155.824H65.8893V154.8H73.0893V155.616L69.6333 159.952L69.0733 159.584H69.5052C70.8493 159.584 71.8519 159.883 72.5133 160.48C73.1853 161.077 73.5213 161.845 73.5213 162.784C73.5213 163.413 73.3719 163.979 73.0733 164.48C72.7746 164.981 72.3213 165.376 71.7133 165.664C71.1159 165.952 70.3639 166.096 69.4573 166.096Z" fill="#333333"/>
<rect x="86" y="144" width="38" height="32" rx="6" fill="white"/>
<path d="M99.284 166V155.28L99.796 155.824H96.644V154.8H100.436V166H99.284ZM102.921 163.056V162.224L108.857 154.8H110.137L104.249 162.224L103.625 162.032H112.633V163.056H102.921ZM109.241 166V163.056L109.273 162.032V159.44H110.393V166H109.241Z" fill="#333333"/>
<rect x="124" y="144" width="38" height="32" rx="6" fill="#EE96FF"/>
<path d="M138.284 166V155.28L138.796 155.824H135.644V154.8H139.436V166H138.284ZM145.649 166.096C144.849 166.096 144.087 165.968 143.361 165.712C142.636 165.445 142.06 165.093 141.633 164.656L142.193 163.744C142.545 164.117 143.025 164.427 143.633 164.672C144.252 164.917 144.919 165.04 145.633 165.04C146.583 165.04 147.303 164.832 147.793 164.416C148.295 163.989 148.545 163.435 148.545 162.752C148.545 162.272 148.428 161.861 148.193 161.52C147.969 161.168 147.585 160.896 147.041 160.704C146.497 160.512 145.751 160.416 144.801 160.416H142.417L142.993 154.8H149.121V155.824H143.457L144.049 155.264L143.553 159.968L142.961 159.392H145.057C146.188 159.392 147.095 159.531 147.777 159.808C148.46 160.085 148.951 160.475 149.249 160.976C149.559 161.467 149.713 162.043 149.713 162.704C149.713 163.333 149.564 163.909 149.265 164.432C148.967 164.944 148.519 165.349 147.921 165.648C147.324 165.947 146.567 166.096 145.649 166.096Z" fill="white"/>
<rect x="162" y="144" width="38" height="32" rx="6" fill="white"/>
<path d="M175.784 166V155.28L176.296 155.824H173.144V154.8H176.936V166H175.784ZM184.205 166.096C183.213 166.096 182.376 165.877 181.693 165.44C181.011 164.992 180.493 164.352 180.141 163.52C179.789 162.677 179.613 161.669 179.613 160.496C179.613 159.227 179.827 158.165 180.253 157.312C180.691 156.448 181.293 155.797 182.061 155.36C182.829 154.923 183.72 154.704 184.733 154.704C185.235 154.704 185.715 154.752 186.173 154.848C186.632 154.944 187.037 155.099 187.389 155.312L186.925 156.24C186.637 156.048 186.307 155.915 185.933 155.84C185.56 155.755 185.165 155.712 184.749 155.712C183.544 155.712 182.579 156.096 181.853 156.864C181.139 157.632 180.781 158.779 180.781 160.304C180.781 160.539 180.792 160.832 180.813 161.184C180.845 161.525 180.909 161.867 181.005 162.208L180.605 161.904C180.723 161.349 180.952 160.88 181.293 160.496C181.635 160.101 182.061 159.803 182.573 159.6C183.085 159.397 183.645 159.296 184.253 159.296C185 159.296 185.656 159.435 186.221 159.712C186.787 159.989 187.229 160.379 187.549 160.88C187.869 161.381 188.029 161.973 188.029 162.656C188.029 163.349 187.864 163.957 187.533 164.48C187.203 164.992 186.744 165.392 186.157 165.68C185.581 165.957 184.931 166.096 184.205 166.096ZM184.157 165.12C184.691 165.12 185.16 165.024 185.565 164.832C185.981 164.629 186.307 164.347 186.541 163.984C186.776 163.611 186.893 163.179 186.893 162.688C186.893 161.952 186.637 161.365 186.125 160.928C185.624 160.491 184.941 160.272 184.077 160.272C183.501 160.272 183 160.379 182.573 160.592C182.147 160.805 181.811 161.099 181.565 161.472C181.32 161.835 181.197 162.251 181.197 162.72C181.197 163.125 181.309 163.515 181.533 163.888C181.757 164.251 182.088 164.549 182.525 164.784C182.973 165.008 183.517 165.12 184.157 165.12Z" fill="#333333"/>
<rect x="200" y="144" width="38" height="32" rx="6" fill="white"/>
<path d="M213.784 166V155.28L214.296 155.824H211.144V154.8H214.936V166H213.784ZM219.581 166L224.413 155.312L224.765 155.824H217.837L218.429 155.264V157.92H217.293V154.8H225.517V155.616L220.829 166H219.581Z" fill="#333333"/>
<rect x="238" y="144" width="38" height="32" rx="6" fill="white"/>
<path d="M251.784 166V155.28L252.296 155.824H249.144V154.8H252.936V166H251.784ZM259.869 166.096C258.973 166.096 258.2 165.968 257.549 165.712C256.909 165.456 256.413 165.088 256.061 164.608C255.72 164.117 255.549 163.541 255.549 162.88C255.549 162.24 255.715 161.696 256.045 161.248C256.387 160.789 256.877 160.437 257.517 160.192C258.168 159.947 258.952 159.824 259.869 159.824C260.776 159.824 261.555 159.947 262.205 160.192C262.856 160.437 263.352 160.789 263.693 161.248C264.045 161.696 264.221 162.24 264.221 162.88C264.221 163.541 264.045 164.117 263.693 164.608C263.341 165.088 262.84 165.456 262.189 165.712C261.539 165.968 260.765 166.096 259.869 166.096ZM259.869 165.12C260.861 165.12 261.635 164.917 262.189 164.512C262.755 164.107 263.037 163.557 263.037 162.864C263.037 162.171 262.755 161.627 262.189 161.232C261.635 160.827 260.861 160.624 259.869 160.624C258.877 160.624 258.104 160.827 257.549 161.232C256.995 161.627 256.717 162.171 256.717 162.864C256.717 163.557 256.995 164.107 257.549 164.512C258.104 164.917 258.877 165.12 259.869 165.12ZM259.869 159.712C260.744 159.712 261.427 159.531 261.917 159.168C262.408 158.805 262.653 158.32 262.653 157.712C262.653 157.072 262.397 156.576 261.885 156.224C261.384 155.861 260.712 155.68 259.869 155.68C259.027 155.68 258.355 155.861 257.853 156.224C257.352 156.576 257.101 157.067 257.101 157.696C257.101 158.315 257.341 158.805 257.821 159.168C258.312 159.531 258.995 159.712 259.869 159.712ZM259.869 160.48C259.037 160.48 258.328 160.368 257.741 160.144C257.165 159.92 256.723 159.6 256.413 159.184C256.104 158.757 255.949 158.251 255.949 157.664C255.949 157.045 256.109 156.517 256.429 156.08C256.76 155.632 257.219 155.291 257.805 155.056C258.392 154.821 259.08 154.704 259.869 154.704C260.659 154.704 261.347 154.821 261.933 155.056C262.531 155.291 262.995 155.632 263.325 156.08C263.656 156.517 263.821 157.045 263.821 157.664C263.821 158.251 263.667 158.757 263.357 159.184C263.048 159.6 262.595 159.92 261.997 160.144C261.411 160.368 260.701 160.48 259.869 160.48Z" fill="#333333"/>
<rect x="10" y="176" width="38" height="32" rx="6" fill="white"/>
<path d="M23.784 198V187.28L24.296 187.824H21.144V186.8H24.936V198H23.784ZM30.5733 198.096C30.0719 198.096 29.5919 198.048 29.1332 197.952C28.6853 197.856 28.2799 197.701 27.9173 197.488L28.3813 196.56C28.6693 196.752 28.9999 196.891 29.3733 196.976C29.7573 197.051 30.1519 197.088 30.5573 197.088C31.7626 197.088 32.7226 196.704 33.4373 195.936C34.1626 195.168 34.5253 194.021 34.5253 192.496C34.5253 192.251 34.5093 191.957 34.4773 191.616C34.4559 191.275 34.3973 190.933 34.3013 190.592L34.7013 190.896C34.5946 191.451 34.3653 191.925 34.0133 192.32C33.6719 192.704 33.2453 192.997 32.7333 193.2C32.2319 193.403 31.6719 193.504 31.0533 193.504C30.3173 193.504 29.6613 193.365 29.0853 193.088C28.5199 192.811 28.0773 192.421 27.7573 191.92C27.4373 191.419 27.2773 190.827 27.2773 190.144C27.2773 189.44 27.4426 188.832 27.7733 188.32C28.1039 187.808 28.5573 187.413 29.1332 187.136C29.7199 186.848 30.3759 186.704 31.1013 186.704C32.0933 186.704 32.9306 186.928 33.6133 187.376C34.2959 187.813 34.8133 188.448 35.1653 189.28C35.5173 190.112 35.6933 191.12 35.6933 192.304C35.6933 193.563 35.4746 194.624 35.0373 195.488C34.6106 196.352 34.0133 197.003 33.2453 197.44C32.4773 197.877 31.5866 198.096 30.5733 198.096ZM31.2293 192.528C31.8053 192.528 32.3066 192.421 32.7333 192.208C33.1706 191.995 33.5066 191.701 33.7413 191.328C33.9866 190.955 34.1093 190.539 34.1093 190.08C34.1093 189.664 33.9973 189.275 33.7733 188.912C33.5493 188.549 33.2186 188.256 32.7813 188.032C32.3439 187.797 31.7999 187.68 31.1493 187.68C30.6159 187.68 30.1413 187.781 29.7253 187.984C29.3199 188.176 28.9999 188.453 28.7653 188.816C28.5306 189.179 28.4133 189.611 28.4133 190.112C28.4133 190.848 28.6639 191.435 29.1653 191.872C29.6773 192.309 30.3653 192.528 31.2293 192.528Z" fill="#333333"/>
<rect x="48" y="176" width="38" height="32" rx="6" fill="white"/>
<path d="M57.624 198V197.184L62.28 192.624C62.7067 192.208 63.0267 191.845 63.24 191.536C63.4533 191.216 63.5973 190.917 63.672 190.64C63.7467 190.363 63.784 190.101 63.784 189.856C63.784 189.205 63.56 188.693 63.112 188.32C62.6747 187.947 62.024 187.76 61.16 187.76C60.4987 187.76 59.912 187.861 59.4 188.064C58.8987 188.267 58.4667 188.581 58.104 189.008L57.288 188.304C57.7253 187.792 58.2853 187.397 58.968 187.12C59.6507 186.843 60.4133 186.704 61.256 186.704C62.0133 186.704 62.6693 186.827 63.224 187.072C63.7787 187.307 64.2053 187.653 64.504 188.112C64.8133 188.571 64.968 189.109 64.968 189.728C64.968 190.091 64.9147 190.448 64.808 190.8C64.712 191.152 64.5307 191.525 64.264 191.92C64.008 192.304 63.6293 192.741 63.128 193.232L58.856 197.424L58.536 196.976H65.48V198H57.624ZM71.3585 198.096C70.4945 198.096 69.7265 197.872 69.0545 197.424C68.3825 196.965 67.8545 196.315 67.4705 195.472C67.0865 194.619 66.8945 193.595 66.8945 192.4C66.8945 191.205 67.0865 190.187 67.4705 189.344C67.8545 188.491 68.3825 187.84 69.0545 187.392C69.7265 186.933 70.4945 186.704 71.3585 186.704C72.2225 186.704 72.9905 186.933 73.6625 187.392C74.3345 187.84 74.8625 188.491 75.2465 189.344C75.6412 190.187 75.8385 191.205 75.8385 192.4C75.8385 193.595 75.6412 194.619 75.2465 195.472C74.8625 196.315 74.3345 196.965 73.6625 197.424C72.9905 197.872 72.2225 198.096 71.3585 198.096ZM71.3585 197.04C72.0198 197.04 72.5958 196.864 73.0865 196.512C73.5772 196.149 73.9612 195.627 74.2385 194.944C74.5158 194.251 74.6545 193.403 74.6545 192.4C74.6545 191.397 74.5158 190.555 74.2385 189.872C73.9612 189.179 73.5772 188.656 73.0865 188.304C72.5958 187.941 72.0198 187.76 71.3585 187.76C70.7185 187.76 70.1478 187.941 69.6465 188.304C69.1452 188.656 68.7558 189.179 68.4785 189.872C68.2012 190.555 68.0625 191.397 68.0625 192.4C68.0625 193.403 68.2012 194.251 68.4785 194.944C68.7558 195.627 69.1452 196.149 69.6465 196.512C70.1478 196.864 70.7185 197.04 71.3585 197.04Z" fill="#333333"/>
<rect x="86" y="176" width="38" height="32" rx="6" fill="white"/>
<path d="M98.124 198V197.184L102.78 192.624C103.207 192.208 103.527 191.845 103.74 191.536C103.953 191.216 104.097 190.917 104.172 190.64C104.247 190.363 104.284 190.101 104.284 189.856C104.284 189.205 104.06 188.693 103.612 188.32C103.175 187.947 102.524 187.76 101.66 187.76C100.999 187.76 100.412 187.861 99.9 188.064C99.3987 188.267 98.9667 188.581 98.604 189.008L97.788 188.304C98.2253 187.792 98.7853 187.397 99.468 187.12C100.151 186.843 100.913 186.704 101.756 186.704C102.513 186.704 103.169 186.827 103.724 187.072C104.279 187.307 104.705 187.653 105.004 188.112C105.313 188.571 105.468 189.109 105.468 189.728C105.468 190.091 105.415 190.448 105.308 190.8C105.212 191.152 105.031 191.525 104.764 191.92C104.508 192.304 104.129 192.741 103.628 193.232L99.356 197.424L99.036 196.976H105.98V198H98.124ZM109.378 198V187.28L109.89 187.824H106.738V186.8H110.53V198H109.378Z" fill="#333333"/>
<rect x="124" y="176" width="38" height="32" rx="6" fill="white"/>
<path d="M134.124 198V197.184L138.78 192.624C139.207 192.208 139.527 191.845 139.74 191.536C139.953 191.216 140.097 190.917 140.172 190.64C140.247 190.363 140.284 190.101 140.284 189.856C140.284 189.205 140.06 188.693 139.612 188.32C139.175 187.947 138.524 187.76 137.66 187.76C136.999 187.76 136.412 187.861 135.9 188.064C135.399 188.267 134.967 188.581 134.604 189.008L133.788 188.304C134.225 187.792 134.785 187.397 135.468 187.12C136.151 186.843 136.913 186.704 137.756 186.704C138.513 186.704 139.169 186.827 139.724 187.072C140.279 187.307 140.705 187.653 141.004 188.112C141.313 188.571 141.468 189.109 141.468 189.728C141.468 190.091 141.415 190.448 141.308 190.8C141.212 191.152 141.031 191.525 140.764 191.92C140.508 192.304 140.129 192.741 139.628 193.232L135.356 197.424L135.036 196.976H141.98V198H134.124ZM143.218 198V197.184L147.874 192.624C148.3 192.208 148.62 191.845 148.834 191.536C149.047 191.216 149.191 190.917 149.266 190.64C149.34 190.363 149.378 190.101 149.378 189.856C149.378 189.205 149.154 188.693 148.706 188.32C148.268 187.947 147.618 187.76 146.754 187.76C146.092 187.76 145.506 187.861 144.994 188.064C144.492 188.267 144.06 188.581 143.698 189.008L142.882 188.304C143.319 187.792 143.879 187.397 144.562 187.12C145.244 186.843 146.007 186.704 146.85 186.704C147.607 186.704 148.263 186.827 148.818 187.072C149.372 187.307 149.799 187.653 150.098 188.112C150.407 188.571 150.562 189.109 150.562 189.728C150.562 190.091 150.508 190.448 150.402 190.8C150.306 191.152 150.124 191.525 149.858 191.92C149.602 192.304 149.223 192.741 148.722 193.232L144.45 197.424L144.13 196.976H151.074V198H143.218Z" fill="#333333"/>
<rect x="162" y="176" width="38" height="32" rx="6" fill="white"/>
<path d="M172.124 198V197.184L176.78 192.624C177.207 192.208 177.527 191.845 177.74 191.536C177.953 191.216 178.097 190.917 178.172 190.64C178.247 190.363 178.284 190.101 178.284 189.856C178.284 189.205 178.06 188.693 177.612 188.32C177.175 187.947 176.524 187.76 175.66 187.76C174.999 187.76 174.412 187.861 173.9 188.064C173.399 188.267 172.967 188.581 172.604 189.008L171.788 188.304C172.225 187.792 172.785 187.397 173.468 187.12C174.151 186.843 174.913 186.704 175.756 186.704C176.513 186.704 177.169 186.827 177.724 187.072C178.279 187.307 178.705 187.653 179.004 188.112C179.313 188.571 179.468 189.109 179.468 189.728C179.468 190.091 179.415 190.448 179.308 190.8C179.212 191.152 179.031 191.525 178.764 191.92C178.508 192.304 178.129 192.741 177.628 193.232L173.356 197.424L173.036 196.976H179.98V198H172.124ZM184.77 198.096C183.959 198.096 183.191 197.968 182.466 197.712C181.751 197.445 181.175 197.093 180.738 196.656L181.298 195.744C181.66 196.117 182.146 196.427 182.754 196.672C183.372 196.917 184.044 197.04 184.77 197.04C185.698 197.04 186.407 196.837 186.898 196.432C187.399 196.027 187.65 195.483 187.65 194.8C187.65 194.117 187.404 193.573 186.914 193.168C186.434 192.763 185.671 192.56 184.626 192.56H183.826V191.712L187.282 187.376L187.442 187.824H181.202V186.8H188.402V187.616L184.946 191.952L184.386 191.584H184.818C186.162 191.584 187.164 191.883 187.826 192.48C188.498 193.077 188.834 193.845 188.834 194.784C188.834 195.413 188.684 195.979 188.386 196.48C188.087 196.981 187.634 197.376 187.026 197.664C186.428 197.952 185.676 198.096 184.77 198.096Z" fill="#333333"/>
<rect x="200" y="176" width="38" height="32" rx="6" fill="white"/>
<path d="M209.624 198V197.184L214.28 192.624C214.707 192.208 215.027 191.845 215.24 191.536C215.453 191.216 215.597 190.917 215.672 190.64C215.747 190.363 215.784 190.101 215.784 189.856C215.784 189.205 215.56 188.693 215.112 188.32C214.675 187.947 214.024 187.76 213.16 187.76C212.499 187.76 211.912 187.861 211.4 188.064C210.899 188.267 210.467 188.581 210.104 189.008L209.288 188.304C209.725 187.792 210.285 187.397 210.968 187.12C211.651 186.843 212.413 186.704 213.256 186.704C214.013 186.704 214.669 186.827 215.224 187.072C215.779 187.307 216.205 187.653 216.504 188.112C216.813 188.571 216.968 189.109 216.968 189.728C216.968 190.091 216.915 190.448 216.808 190.8C216.712 191.152 216.531 191.525 216.264 191.92C216.008 192.304 215.629 192.741 215.128 193.232L210.856 197.424L210.536 196.976H217.48V198H209.624ZM218.374 195.056V194.224L224.31 186.8H225.59L219.702 194.224L219.078 194.032H228.086V195.056H218.374ZM224.694 198V195.056L224.726 194.032V191.44H225.846V198H224.694Z" fill="#333333"/>
<rect x="238" y="176" width="38" height="32" rx="6" fill="white"/>
<path d="M248.124 198V197.184L252.78 192.624C253.207 192.208 253.527 191.845 253.74 191.536C253.953 191.216 254.097 190.917 254.172 190.64C254.247 190.363 254.284 190.101 254.284 189.856C254.284 189.205 254.06 188.693 253.612 188.32C253.175 187.947 252.524 187.76 251.66 187.76C250.999 187.76 250.412 187.861 249.9 188.064C249.399 188.267 248.967 188.581 248.604 189.008L247.788 188.304C248.225 187.792 248.785 187.397 249.468 187.12C250.151 186.843 250.913 186.704 251.756 186.704C252.513 186.704 253.169 186.827 253.724 187.072C254.279 187.307 254.705 187.653 255.004 188.112C255.313 188.571 255.468 189.109 255.468 189.728C255.468 190.091 255.415 190.448 255.308 190.8C255.212 191.152 255.031 191.525 254.764 191.92C254.508 192.304 254.129 192.741 253.628 193.232L249.356 197.424L249.036 196.976H255.98V198H248.124ZM260.962 198.096C260.162 198.096 259.399 197.968 258.674 197.712C257.948 197.445 257.372 197.093 256.946 196.656L257.506 195.744C257.858 196.117 258.338 196.427 258.946 196.672C259.564 196.917 260.231 197.04 260.946 197.04C261.895 197.04 262.615 196.832 263.106 196.416C263.607 195.989 263.858 195.435 263.858 194.752C263.858 194.272 263.74 193.861 263.506 193.52C263.282 193.168 262.898 192.896 262.354 192.704C261.81 192.512 261.063 192.416 260.114 192.416H257.73L258.306 186.8H264.434V187.824H258.77L259.362 187.264L258.866 191.968L258.274 191.392H260.37C261.5 191.392 262.407 191.531 263.09 191.808C263.772 192.085 264.263 192.475 264.562 192.976C264.871 193.467 265.026 194.043 265.026 194.704C265.026 195.333 264.876 195.909 264.578 196.432C264.279 196.944 263.831 197.349 263.234 197.648C262.636 197.947 261.879 198.096 260.962 198.096Z" fill="#333333"/>
<rect x="10" y="208" width="38" height="32" rx="6" fill="white"/>
<path d="M20.124 230V229.184L24.78 224.624C25.2067 224.208 25.5267 223.845 25.74 223.536C25.9533 223.216 26.0973 222.917 26.172 222.64C26.2467 222.363 26.284 222.101 26.284 221.856C26.284 221.205 26.06 220.693 25.612 220.32C25.1747 219.947 24.524 219.76 23.66 219.76C22.9987 219.76 22.412 219.861 21.9 220.064C21.3987 220.267 20.9667 220.581 20.604 221.008L19.788 220.304C20.2253 219.792 20.7853 219.397 21.468 219.12C22.1507 218.843 22.9133 218.704 23.756 218.704C24.5133 218.704 25.1693 218.827 25.724 219.072C26.2787 219.307 26.7053 219.653 27.004 220.112C27.3133 220.571 27.468 221.109 27.468 221.728C27.468 222.091 27.4147 222.448 27.308 222.8C27.212 223.152 27.0307 223.525 26.764 223.92C26.508 224.304 26.1293 224.741 25.628 225.232L21.356 229.424L21.036 228.976H27.98V230H20.124ZM33.9865 230.096C32.9945 230.096 32.1572 229.877 31.4745 229.44C30.7918 228.992 30.2745 228.352 29.9225 227.52C29.5705 226.677 29.3945 225.669 29.3945 224.496C29.3945 223.227 29.6078 222.165 30.0345 221.312C30.4718 220.448 31.0745 219.797 31.8425 219.36C32.6105 218.923 33.5012 218.704 34.5145 218.704C35.0158 218.704 35.4958 218.752 35.9545 218.848C36.4132 218.944 36.8185 219.099 37.1705 219.312L36.7065 220.24C36.4185 220.048 36.0878 219.915 35.7145 219.84C35.3412 219.755 34.9465 219.712 34.5305 219.712C33.3252 219.712 32.3598 220.096 31.6345 220.864C30.9198 221.632 30.5625 222.779 30.5625 224.304C30.5625 224.539 30.5732 224.832 30.5945 225.184C30.6265 225.525 30.6905 225.867 30.7865 226.208L30.3865 225.904C30.5038 225.349 30.7332 224.88 31.0745 224.496C31.4158 224.101 31.8425 223.803 32.3545 223.6C32.8665 223.397 33.4265 223.296 34.0345 223.296C34.7812 223.296 35.4372 223.435 36.0025 223.712C36.5678 223.989 37.0105 224.379 37.3305 224.88C37.6505 225.381 37.8105 225.973 37.8105 226.656C37.8105 227.349 37.6452 227.957 37.3145 228.48C36.9838 228.992 36.5252 229.392 35.9385 229.68C35.3625 229.957 34.7118 230.096 33.9865 230.096ZM33.9385 229.12C34.4718 229.12 34.9412 229.024 35.3465 228.832C35.7625 228.629 36.0878 228.347 36.3225 227.984C36.5572 227.611 36.6745 227.179 36.6745 226.688C36.6745 225.952 36.4185 225.365 35.9065 224.928C35.4052 224.491 34.7225 224.272 33.8585 224.272C33.2825 224.272 32.7812 224.379 32.3545 224.592C31.9278 224.805 31.5918 225.099 31.3465 225.472C31.1012 225.835 30.9785 226.251 30.9785 226.72C30.9785 227.125 31.0905 227.515 31.3145 227.888C31.5385 228.251 31.8692 228.549 32.3065 228.784C32.7545 229.008 33.2985 229.12 33.9385 229.12Z" fill="#333333"/>
<rect x="48" y="208" width="38" height="32" rx="6" fill="white"/>
<path d="M58.124 230V229.184L62.78 224.624C63.2067 224.208 63.5267 223.845 63.74 223.536C63.9533 223.216 64.0973 222.917 64.172 222.64C64.2467 222.363 64.284 222.101 64.284 221.856C64.284 221.205 64.06 220.693 63.612 220.32C63.1747 219.947 62.524 219.76 61.66 219.76C60.9987 219.76 60.412 219.861 59.9 220.064C59.3987 220.267 58.9667 220.581 58.604 221.008L57.788 220.304C58.2253 219.792 58.7853 219.397 59.468 219.12C60.1507 218.843 60.9133 218.704 61.756 218.704C62.5133 218.704 63.1693 218.827 63.724 219.072C64.2787 219.307 64.7053 219.653 65.004 220.112C65.3133 220.571 65.468 221.109 65.468 221.728C65.468 222.091 65.4147 222.448 65.308 222.8C65.212 223.152 65.0307 223.525 64.764 223.92C64.508 224.304 64.1293 224.741 63.628 225.232L59.356 229.424L59.036 228.976H65.98V230H58.124ZM69.3625 230L74.1945 219.312L74.5465 219.824H67.6185L68.2105 219.264V221.92H67.0745V218.8H75.2985V219.616L70.6105 230H69.3625Z" fill="#333333"/>
<rect x="86" y="208" width="38" height="32" rx="6" fill="white"/>
<path d="M95.624 230V229.184L100.28 224.624C100.707 224.208 101.027 223.845 101.24 223.536C101.453 223.216 101.597 222.917 101.672 222.64C101.747 222.363 101.784 222.101 101.784 221.856C101.784 221.205 101.56 220.693 101.112 220.32C100.675 219.947 100.024 219.76 99.16 219.76C98.4987 219.76 97.912 219.861 97.4 220.064C96.8987 220.267 96.4667 220.581 96.104 221.008L95.288 220.304C95.7253 219.792 96.2853 219.397 96.968 219.12C97.6507 218.843 98.4133 218.704 99.256 218.704C100.013 218.704 100.669 218.827 101.224 219.072C101.779 219.307 102.205 219.653 102.504 220.112C102.813 220.571 102.968 221.109 102.968 221.728C102.968 222.091 102.915 222.448 102.808 222.8C102.712 223.152 102.531 223.525 102.264 223.92C102.008 224.304 101.629 224.741 101.128 225.232L96.856 229.424L96.536 228.976H103.48V230H95.624ZM109.182 230.096C108.286 230.096 107.512 229.968 106.862 229.712C106.222 229.456 105.726 229.088 105.374 228.608C105.032 228.117 104.862 227.541 104.862 226.88C104.862 226.24 105.027 225.696 105.358 225.248C105.699 224.789 106.19 224.437 106.83 224.192C107.48 223.947 108.264 223.824 109.182 223.824C110.088 223.824 110.867 223.947 111.518 224.192C112.168 224.437 112.664 224.789 113.006 225.248C113.358 225.696 113.534 226.24 113.534 226.88C113.534 227.541 113.358 228.117 113.006 228.608C112.654 229.088 112.152 229.456 111.502 229.712C110.851 229.968 110.078 230.096 109.182 230.096ZM109.182 229.12C110.174 229.12 110.947 228.917 111.502 228.512C112.067 228.107 112.35 227.557 112.35 226.864C112.35 226.171 112.067 225.627 111.502 225.232C110.947 224.827 110.174 224.624 109.182 224.624C108.19 224.624 107.416 224.827 106.862 225.232C106.307 225.627 106.03 226.171 106.03 226.864C106.03 227.557 106.307 228.107 106.862 228.512C107.416 228.917 108.19 229.12 109.182 229.12ZM109.182 223.712C110.056 223.712 110.739 223.531 111.23 223.168C111.72 222.805 111.966 222.32 111.966 221.712C111.966 221.072 111.71 220.576 111.198 220.224C110.696 219.861 110.024 219.68 109.182 219.68C108.339 219.68 107.667 219.861 107.166 220.224C106.664 220.576 106.414 221.067 106.414 221.696C106.414 222.315 106.654 222.805 107.134 223.168C107.624 223.531 108.307 223.712 109.182 223.712ZM109.182 224.48C108.35 224.48 107.64 224.368 107.054 224.144C106.478 223.92 106.035 223.6 105.726 223.184C105.416 222.757 105.262 222.251 105.262 221.664C105.262 221.045 105.422 220.517 105.742 220.08C106.072 219.632 106.531 219.291 107.118 219.056C107.704 218.821 108.392 218.704 109.182 218.704C109.971 218.704 110.659 218.821 111.246 219.056C111.843 219.291 112.307 219.632 112.638 220.08C112.968 220.517 113.134 221.045 113.134 221.664C113.134 222.251 112.979 222.757 112.67 223.184C112.36 223.6 111.907 223.92 111.31 224.144C110.723 224.368 110.014 224.48 109.182 224.48Z" fill="#333333"/>
<rect x="124" y="208" width="38" height="32" rx="6" fill="white"/>
<path d="M134.124 230V229.184L138.78 224.624C139.207 224.208 139.527 223.845 139.74 223.536C139.953 223.216 140.097 222.917 140.172 222.64C140.247 222.363 140.284 222.101 140.284 221.856C140.284 221.205 140.06 220.693 139.612 220.32C139.175 219.947 138.524 219.76 137.66 219.76C136.999 219.76 136.412 219.861 135.9 220.064C135.399 220.267 134.967 220.581 134.604 221.008L133.788 220.304C134.225 219.792 134.785 219.397 135.468 219.12C136.151 218.843 136.913 218.704 137.756 218.704C138.513 218.704 139.169 218.827 139.724 219.072C140.279 219.307 140.705 219.653 141.004 220.112C141.313 220.571 141.468 221.109 141.468 221.728C141.468 222.091 141.415 222.448 141.308 222.8C141.212 223.152 141.031 223.525 140.764 223.92C140.508 224.304 140.129 224.741 139.628 225.232L135.356 229.424L135.036 228.976H141.98V230H134.124ZM146.386 230.096C145.884 230.096 145.404 230.048 144.946 229.952C144.498 229.856 144.092 229.701 143.73 229.488L144.194 228.56C144.482 228.752 144.812 228.891 145.186 228.976C145.57 229.051 145.964 229.088 146.37 229.088C147.575 229.088 148.535 228.704 149.25 227.936C149.975 227.168 150.338 226.021 150.338 224.496C150.338 224.251 150.322 223.957 150.29 223.616C150.268 223.275 150.21 222.933 150.114 222.592L150.514 222.896C150.407 223.451 150.178 223.925 149.826 224.32C149.484 224.704 149.058 224.997 148.546 225.2C148.044 225.403 147.484 225.504 146.866 225.504C146.13 225.504 145.474 225.365 144.898 225.088C144.332 224.811 143.89 224.421 143.57 223.92C143.25 223.419 143.09 222.827 143.09 222.144C143.09 221.44 143.255 220.832 143.586 220.32C143.916 219.808 144.37 219.413 144.946 219.136C145.532 218.848 146.188 218.704 146.914 218.704C147.906 218.704 148.743 218.928 149.426 219.376C150.108 219.813 150.626 220.448 150.978 221.28C151.33 222.112 151.506 223.12 151.506 224.304C151.506 225.563 151.287 226.624 150.85 227.488C150.423 228.352 149.826 229.003 149.058 229.44C148.29 229.877 147.399 230.096 146.386 230.096ZM147.042 224.528C147.618 224.528 148.119 224.421 148.546 224.208C148.983 223.995 149.319 223.701 149.554 223.328C149.799 222.955 149.922 222.539 149.922 222.08C149.922 221.664 149.81 221.275 149.586 220.912C149.362 220.549 149.031 220.256 148.594 220.032C148.156 219.797 147.612 219.68 146.962 219.68C146.428 219.68 145.954 219.781 145.538 219.984C145.132 220.176 144.812 220.453 144.578 220.816C144.343 221.179 144.226 221.611 144.226 222.112C144.226 222.848 144.476 223.435 144.978 223.872C145.49 224.309 146.178 224.528 147.042 224.528Z" fill="#333333"/>
<rect x="162" y="208" width="38" height="32" rx="6" fill="white"/>
<path d="M175.176 230.096C174.365 230.096 173.597 229.968 172.872 229.712C172.157 229.445 171.581 229.093 171.144 228.656L171.704 227.744C172.067 228.117 172.552 228.427 173.16 228.672C173.779 228.917 174.451 229.04 175.176 229.04C176.104 229.04 176.813 228.837 177.304 228.432C177.805 228.027 178.056 227.483 178.056 226.8C178.056 226.117 177.811 225.573 177.32 225.168C176.84 224.763 176.077 224.56 175.032 224.56H174.232V223.712L177.688 219.376L177.848 219.824H171.608V218.8H178.808V219.616L175.352 223.952L174.792 223.584H175.224C176.568 223.584 177.571 223.883 178.232 224.48C178.904 225.077 179.24 225.845 179.24 226.784C179.24 227.413 179.091 227.979 178.792 228.48C178.493 228.981 178.04 229.376 177.432 229.664C176.835 229.952 176.083 230.096 175.176 230.096ZM185.327 230.096C184.463 230.096 183.695 229.872 183.023 229.424C182.351 228.965 181.823 228.315 181.439 227.472C181.055 226.619 180.863 225.595 180.863 224.4C180.863 223.205 181.055 222.187 181.439 221.344C181.823 220.491 182.351 219.84 183.023 219.392C183.695 218.933 184.463 218.704 185.327 218.704C186.191 218.704 186.959 218.933 187.631 219.392C188.303 219.84 188.831 220.491 189.215 221.344C189.61 222.187 189.807 223.205 189.807 224.4C189.807 225.595 189.61 226.619 189.215 227.472C188.831 228.315 188.303 228.965 187.631 229.424C186.959 229.872 186.191 230.096 185.327 230.096ZM185.327 229.04C185.989 229.04 186.565 228.864 187.055 228.512C187.546 228.149 187.93 227.627 188.207 226.944C188.485 226.251 188.623 225.403 188.623 224.4C188.623 223.397 188.485 222.555 188.207 221.872C187.93 221.179 187.546 220.656 187.055 220.304C186.565 219.941 185.989 219.76 185.327 219.76C184.687 219.76 184.117 219.941 183.615 220.304C183.114 220.656 182.725 221.179 182.447 221.872C182.17 222.555 182.031 223.397 182.031 224.4C182.031 225.403 182.17 226.251 182.447 226.944C182.725 227.627 183.114 228.149 183.615 228.512C184.117 228.864 184.687 229.04 185.327 229.04Z" fill="#333333"/>
<rect x="200" y="208" width="38" height="32" rx="6" fill="white"/>
<path d="M215.676 230.096C214.865 230.096 214.097 229.968 213.372 229.712C212.657 229.445 212.081 229.093 211.644 228.656L212.204 227.744C212.567 228.117 213.052 228.427 213.66 228.672C214.279 228.917 214.951 229.04 215.676 229.04C216.604 229.04 217.313 228.837 217.804 228.432C218.305 228.027 218.556 227.483 218.556 226.8C218.556 226.117 218.311 225.573 217.82 225.168C217.34 224.763 216.577 224.56 215.532 224.56H214.732V223.712L218.188 219.376L218.348 219.824H212.108V218.8H219.308V219.616L215.852 223.952L215.292 223.584H215.724C217.068 223.584 218.071 223.883 218.732 224.48C219.404 225.077 219.74 225.845 219.74 226.784C219.74 227.413 219.591 227.979 219.292 228.48C218.993 228.981 218.54 229.376 217.932 229.664C217.335 229.952 216.583 230.096 215.676 230.096ZM223.315 230V219.28L223.827 219.824H220.675V218.8H224.467V230H223.315Z" fill="#333333"/>
<rect x="238" y="208" width="38" height="32" rx="6" fill="white"/>
<path d="M256.784 230V219.28L257.296 219.824H254.144V218.8H257.936V230H256.784Z" fill="#F0F0F0"/>
</svg>
