<svg width="245" height="159" viewBox="0 0 245 159" fill="none" xmlns="http://www.w3.org/2000/svg">
<g clip-path="url(#clip0_137_579)">
<path d="M217.381 74.8093C217.179 74.1219 216.735 73.5153 216.13 73.1109C215.686 72.8076 215.222 72.6863 214.879 72.6055L210.098 71.3519C210.098 71.3519 210.037 71.1901 209.977 71.0284L208.363 66.6409C208.121 65.9333 207.717 65.3672 207.173 64.983C206.567 64.5584 205.861 64.3764 205.175 64.4169C204.429 64.4573 203.743 64.7808 203.218 65.2863C202.916 65.5896 202.714 65.9131 202.512 66.2568L200.414 69.5726C200.253 69.8355 200.091 70.0983 199.97 70.2601C199.97 70.2601 199.869 70.3005 199.688 70.3005L195.088 70.4825C194.503 70.4825 193.817 70.5432 193.232 70.9273C192.586 71.2912 192.102 71.918 191.86 72.6661C191.638 73.394 191.678 74.1825 192.001 74.8902C192.183 75.2945 192.445 75.5978 192.707 75.9213L195.27 79.0148C195.451 79.2372 195.633 79.4394 195.754 79.6011C195.754 79.6011 195.754 79.7022 195.713 79.864L194.463 84.2919C194.281 84.858 194.12 85.5252 194.321 86.2127C194.422 86.6777 194.644 87.1023 194.947 87.4662C195.108 87.6684 195.31 87.8706 195.552 88.0526C196.177 88.4974 196.944 88.6793 197.69 88.5985C198.175 88.5378 198.558 88.3761 198.861 88.2345L202.532 86.7788C202.815 86.6575 203.117 86.5362 203.319 86.4755C203.339 86.4755 203.42 86.4755 203.561 86.5968L207.374 89.1646C207.858 89.5083 208.444 89.8722 209.15 89.8925C209.251 89.8925 209.351 89.8925 209.452 89.8925C210.098 89.8925 210.723 89.6903 211.288 89.2859C211.893 88.8411 212.337 88.1536 212.478 87.4056C212.559 86.9405 212.539 86.5362 212.519 86.1924L212.277 82.1891C212.257 81.8859 212.236 81.5826 212.236 81.3602C212.236 81.3602 212.277 81.2793 212.438 81.158L214.839 79.2776C215.484 78.7722 215.585 77.8421 215.061 77.1749C214.536 76.5683 213.608 76.4672 213.003 76.9525L210.703 78.7722C209.836 79.3383 209.331 80.2684 209.291 81.3197C209.291 81.6837 209.331 82.0476 209.351 82.5126L209.573 85.9902C209.573 86.1318 209.573 86.2733 209.593 86.4148C209.614 86.5564 209.614 86.7586 209.472 86.9203C209.452 86.9203 209.372 86.8799 209.129 86.6979L205.377 84.1706C204.57 83.5236 203.541 83.3214 202.512 83.6044C202.169 83.7257 201.846 83.8471 201.503 83.9886L198.155 85.323C198.033 85.3635 197.892 85.4241 197.771 85.4848C197.65 85.5454 197.448 85.6263 197.267 85.5252C197.267 85.505 197.267 85.4241 197.368 85.1208L198.598 80.7536C198.962 79.7831 198.84 78.7317 198.255 77.8421C198.033 77.559 197.812 77.276 197.569 76.9929L195.29 74.223C195.209 74.1219 195.108 74.0005 195.007 73.8792C194.927 73.7781 194.806 73.6366 194.846 73.4344C194.866 73.4344 194.967 73.4142 195.249 73.4142L199.768 73.2322C200.818 73.2929 201.766 72.8481 202.411 71.9989C202.613 71.7158 202.774 71.4328 202.996 71.0891L204.933 68.036C205.014 67.9349 205.074 67.8136 205.155 67.6923C205.236 67.5508 205.337 67.4092 205.538 67.3486C205.538 67.3486 205.579 67.389 205.639 67.571L207.193 71.7967L207.273 72.0191C207.394 72.3426 207.556 72.8279 207.919 73.2322C208.363 73.7579 208.988 74.1421 209.634 74.2634L213.911 75.3552C214.032 75.3956 214.153 75.4159 214.294 75.4563C214.375 75.4563 214.536 75.517 214.617 75.5776C214.839 76.3661 215.666 76.8312 216.453 76.5885C217.24 76.3661 217.684 75.5372 217.462 74.7486L217.381 74.8093Z" fill="#9AF2E6"/>
<path d="M188.875 7.50114C186.756 4.34702 183.71 2.00165 180.341 0.909837C176.871 -0.262849 173.078 -0.283067 169.689 0.849181C167.167 1.69837 165.149 3.19455 163.172 4.6503C162.506 5.13555 161.861 5.6208 161.155 6.10605L138.842 22.1597C136.764 23.6761 134.222 24.586 131.72 24.687C130.429 24.7679 129.178 24.6264 128.008 24.3433C127.14 24.1209 126.273 23.8176 125.365 23.4739C124.982 23.3324 124.578 23.1909 124.215 23.0696L109.145 17.6307C107.41 17.0039 105.715 16.3974 104.04 15.7908C101.034 14.699 98.1092 13.6476 95.2444 12.6569C90.463 11.0799 84.9957 11.8482 81.0213 14.6383C77.3495 17.0848 74.6663 21.0477 73.8997 25.1319C73.4155 27.1942 73.5365 29.216 73.7383 31.0357C73.8391 31.6221 73.9804 32.1882 74.1216 32.7543L80.6582 62.2736C80.7994 62.1928 80.9406 62.1119 81.0818 62.0512C81.4046 61.9299 81.7476 61.8895 82.0905 61.8491C82.4537 61.8086 82.7967 61.7682 83.1598 61.7682C83.2607 61.7682 83.3414 61.8086 83.4221 61.8288C83.4624 61.8086 83.5028 61.7682 83.5431 61.748C83.7045 61.6266 84.6325 60.1911 84.7939 60.09C84.7939 60.09 84.0677 61.4245 84.0878 61.4042L78.3986 34.756L77.7328 32.6937L77.5513 31.9254C77.4302 31.4199 77.3092 30.9346 77.2285 30.5505C77.0671 29.0947 76.9662 27.5177 77.3495 25.9002C77.9548 22.645 80.0529 19.5515 82.9984 17.5903C86.1255 15.4067 90.3823 14.8203 94.1146 16.0334C96.939 17.0039 99.8442 18.0553 102.83 19.1269C104.504 19.7335 106.219 20.3602 107.954 20.9668L123.045 26.4056C123.408 26.527 123.791 26.6685 124.155 26.81C125.123 27.1537 126.111 27.5177 127.161 27.7805C128.674 28.1445 130.247 28.3062 131.881 28.2253C135.069 28.0838 138.277 26.9515 140.92 25.0105L163.172 8.99732C163.878 8.51207 164.584 8.00661 165.27 7.48092C167.086 6.12627 168.821 4.85249 170.818 4.18527C173.481 3.29565 176.467 3.31586 179.231 4.24593C181.874 5.11533 184.275 6.95523 185.969 9.48257C187.906 12.2728 188.189 15.5684 188.068 17.8936L187.2 45.6336C187.583 45.6336 187.967 45.6336 188.33 45.6741C189.137 45.7347 189.924 45.7954 190.731 45.856L191.598 18.0755C191.739 15.2247 191.396 11.0799 188.875 7.50114Z" fill="#68E6F9"/>
<path d="M217.522 90.4383C217.563 90.7214 217.644 91.0045 217.664 91.2673C217.845 93.9564 217.119 96.6051 215.606 98.6876C214.073 100.811 211.793 102.428 209.19 103.176L183.145 110.334C182.641 110.475 182.136 110.617 181.632 110.738C180.724 110.981 179.796 111.243 178.888 111.506C177.415 111.971 175.983 112.679 174.591 113.629C172.049 115.429 170.092 117.976 169.124 120.827L160.207 146.141C159.843 147.213 159.48 148.223 159.036 149.174C158.149 151.054 156.757 152.631 155.001 153.784C151.653 155.987 147.133 156.513 143.462 155.118C141.767 154.491 140.193 153.46 138.922 152.186C138.014 151.175 137.208 150.043 136.441 148.972C136.138 148.547 135.836 148.122 135.533 147.718L124.195 132.028C123.63 131.26 123.085 130.512 122.581 129.784C121.653 128.49 120.785 127.277 119.898 126.165C118.627 124.669 117.053 123.435 115.177 122.465C113.744 121.737 112.554 121.393 111.606 121.151C110.759 120.969 110.315 120.908 110.315 120.908C109.407 120.807 108.58 121.393 108.459 122.222C108.338 123.071 108.943 123.84 109.851 123.981C109.891 123.981 110.234 124.042 110.799 124.163C111.566 124.365 112.494 124.628 113.603 125.194C115.076 125.942 116.327 126.933 117.295 128.065C118.102 129.076 118.95 130.249 119.837 131.503C120.362 132.23 120.906 132.999 121.471 133.767L132.809 149.457C133.112 149.861 133.395 150.266 133.697 150.69C134.524 151.843 135.372 153.035 136.461 154.228C138.115 155.886 140.113 157.201 142.231 157.989C143.986 158.656 145.883 158.98 147.779 158.98C150.987 158.98 154.235 158.07 156.878 156.311C159.117 154.835 160.892 152.813 162.042 150.427C162.567 149.335 162.95 148.183 163.334 147.091L172.251 121.777C173.017 119.533 174.551 117.511 176.548 116.116C177.637 115.368 178.767 114.802 179.897 114.438C180.764 114.175 181.652 113.933 182.54 113.69C183.044 113.548 183.569 113.407 184.073 113.265L210.159 106.108C213.488 105.117 216.393 103.095 218.35 100.386C220.246 97.7171 221.174 94.4012 220.952 91.0045C220.892 90.3575 220.791 89.7105 220.629 89.0635C219.681 89.7105 218.652 90.2159 217.502 90.3777L217.522 90.4383Z" fill="#68E6F9"/>
<path d="M41.1161 60.2921C40.7126 59.6451 39.8653 59.4429 39.2197 59.8473L38.675 60.1708C38.4934 60.2921 38.2311 60.4538 37.868 60.6156L36.1733 61.4446C35.8909 61.5457 35.6084 61.6468 35.2856 61.7681C34.7813 61.95 34.2164 62.1724 33.6111 62.3544C31.4121 63.0014 29.0517 63.3249 26.6106 63.3249C23.5844 63.3249 20.4977 62.6981 17.6732 61.5254C16.6443 61.1008 15.6356 60.5752 14.6874 59.9888C14.6269 60.0697 12.8313 61.9298 12.7305 62.0107C13.9813 62.7992 15.2725 63.5271 16.6242 64.073C19.7714 65.367 23.2212 66.0544 26.6106 66.0747C29.314 66.0747 31.9165 65.7107 34.3778 64.9828C35.0637 64.7807 35.669 64.5582 36.254 64.3358C36.5365 64.2347 36.7987 64.1337 37.2022 63.9719L38.9978 63.1025C39.4819 62.9003 39.8451 62.6577 40.2688 62.3948L40.6521 62.1724C41.2977 61.7681 41.4994 60.9189 41.0959 60.2719L41.1161 60.2921Z" fill="#EE96FF"/>
<path d="M37.0805 14.4362C34.6394 13.4455 32.3798 12.8591 30.2413 12.6165C27.8809 12.2728 25.4196 12.293 22.9583 12.6772C18.2173 13.304 13.4561 15.4471 9.50185 18.7226C5.64851 22.0587 2.74337 26.4259 1.33115 30.9751C0.54434 33.3609 0.120674 35.7872 0.0601504 38.1325C-0.060897 40.3162 0.140849 42.6413 0.705737 45.2697C1.75481 49.7785 3.87314 53.8425 6.79846 57.0573C7.30282 56.2485 7.84753 55.46 8.47295 54.7321C6.07217 51.9217 4.29681 48.4643 3.40913 44.6632C2.90476 42.3178 2.70302 40.2353 2.82407 38.2538C2.88459 36.1309 3.26791 33.9675 3.97402 31.8041C5.24502 27.7199 7.84753 23.8177 11.2974 20.8253C14.8481 17.8936 19.1251 15.9728 23.3618 15.4067C25.581 15.0832 27.78 15.063 29.9185 15.3663C31.8553 15.5887 33.8526 16.1144 36.0516 17.004C39.4006 18.4193 42.2654 20.522 44.5451 23.0696C44.646 22.9685 44.7468 22.8674 44.8477 22.7663C45.4126 22.2204 45.9977 21.7149 46.6231 21.2499C44.0609 18.3788 40.8531 16.0133 37.1007 14.4362H37.0805Z" fill="#EE96FF"/>
<path d="M48.4589 28.9128C49.2457 30.5303 49.851 32.2287 50.2544 33.9675C50.9202 36.9397 51.0211 40.0938 50.5167 43.0862C50.1132 45.4922 49.3869 47.7567 48.3782 49.8392C48.0958 50.4053 47.7931 50.931 47.5309 51.3961C47.3695 51.6791 47.2081 51.942 47.1476 52.0633L45.9371 53.7819C45.7353 54.0851 45.5336 54.3075 45.3924 54.4693L45.2713 54.6108L44.9889 54.9343C44.4845 55.5005 44.545 56.3901 45.1301 56.8753C45.695 57.3808 46.5827 57.3201 47.0669 56.7338L47.4704 56.289C47.6923 56.0464 47.9747 55.7229 48.237 55.3185L49.508 53.4988C49.629 53.2562 49.7703 53.0135 49.9317 52.7709C50.2343 52.2452 50.5772 51.6589 50.8799 51.0119C52.0096 48.707 52.7964 46.1796 53.2605 43.5108C53.8253 40.1747 53.7245 36.6364 52.9578 33.3205C52.4736 31.1773 51.707 29.115 50.6983 27.1538" fill="#EE96FF"/>
<path d="M53.1802 19.5516C52.8776 19.2079 52.4539 19.0057 51.9899 18.9653C51.546 18.9451 51.082 19.0866 50.7592 19.3899L2.46131 62.476C2.11834 62.7792 1.9166 63.2038 1.89642 63.6486C1.87625 64.1137 2.01747 64.5585 2.32009 64.882C2.64288 65.2459 3.1069 65.4683 3.61126 65.4683C4.03493 65.4683 4.43842 65.3066 4.76121 65.0235L53.039 21.9779C53.3819 21.6746 53.5837 21.25 53.6039 20.8052C53.624 20.3604 53.4828 19.9156 53.1802 19.5718V19.5516Z" fill="#EE96FF"/>
<path d="M49.3069 88.6185C49.3473 88.5174 49.3876 88.3961 49.428 88.295C49.6499 87.7289 49.9323 87.1021 50.356 86.6573C50.356 86.5158 50.3157 86.3945 50.2955 86.2529L36.2136 70.9474C35.911 70.6036 35.4874 70.4419 35.0637 70.4419C34.6804 70.4419 34.2971 70.5834 33.9944 70.8463C33.369 71.4326 33.3287 72.4233 33.9137 73.0703L48.964 89.4475C49.0648 89.1644 49.1657 88.8814 49.2868 88.6185H49.3069Z" fill="#EE96FF"/>
<path d="M107.954 115.53L87.9206 89.5487C86.5891 89.5285 85.2576 89.5083 83.926 89.488L105.109 116.965L105.069 117.188C105.029 117.39 105.008 117.572 104.968 117.774C104.867 118.3 104.686 118.886 104.423 119.614C103.536 121.98 101.982 124.183 99.9043 125.942C97.786 127.722 95.365 128.894 92.9037 129.359C92.1573 129.501 91.552 129.562 90.967 129.582C90.7652 129.582 90.5635 129.582 90.3617 129.582H90.16L90.0188 129.42L68.0688 105.542C67.0803 106.047 66.0715 106.512 65.0225 106.856L88.2837 132.15C88.5057 132.392 88.7881 132.554 89.1109 132.615C89.3328 132.655 89.5547 132.675 89.8977 132.695C90.281 132.695 90.7047 132.695 91.088 132.695C91.7941 132.675 92.5406 132.574 93.4686 132.412C96.4544 131.846 99.3798 130.411 101.902 128.308C104.403 126.185 106.279 123.536 107.349 120.645C107.651 119.796 107.873 119.068 108.014 118.36C108.095 117.956 108.176 117.572 108.236 117.026C108.257 116.804 108.277 116.601 108.277 116.379C108.277 116.055 108.156 115.732 107.954 115.489V115.53Z" fill="#EE96FF"/>
<path d="M71.5997 73.5356H75.5539L58.8898 51.9218C58.3652 51.2343 57.3767 51.113 56.6907 51.6387C56.0048 52.1644 55.8837 53.1551 56.4083 53.8426L71.5997 73.5356Z" fill="#EE96FF"/>
<path d="M115.136 38.6582H98.7142C96.4749 38.6582 95.7889 39.0019 95.6477 39.103C95.4863 39.2041 94.9214 39.7096 94.1144 41.691L87.2954 58.2299H83.6035C82.5746 58.2299 81.7474 58.5332 81.0413 59.16C81.0413 59.16 81.0413 59.1802 81.0211 59.2004L81.1624 59.3824C81.3036 59.6048 81.3843 59.8676 81.4045 60.1305C81.465 60.3933 81.4448 60.6764 81.3641 60.9392C81.3036 61.2021 81.1825 61.4245 81.001 61.6267C80.8598 61.8491 81.0413 62.0108 80.7992 62.1523C80.7589 62.1726 80.7185 62.213 80.6782 62.2332C80.9203 62.5972 81.0615 62.8398 82.1509 62.8398H85.4596L77.1678 83.2809H64.8815C61.2299 83.2809 58.3247 83.8875 56.2468 85.0804C54.7135 85.97 53.4829 87.2438 52.575 88.8815C51.6671 90.5192 51.2031 92.2985 51.2031 94.1788C51.2031 97.2116 52.232 99.6176 54.3504 101.579C56.509 103.56 59.2124 104.531 62.6018 104.531C66.7981 104.531 70.5505 103.014 73.7987 100.042C75.0495 98.8898 76.0582 97.6968 76.8248 96.4635C77.6116 95.1897 78.7616 92.905 80.2142 89.67L81.0413 87.8908H106.441C107.49 87.8908 108.317 87.5875 109.003 86.9607C109.649 86.3744 109.951 85.6667 109.951 84.7771C109.951 84.1099 109.951 83.3011 107.894 83.3011H82.8369L91.1286 62.86H98.573C99.6019 62.86 100.429 62.5567 101.115 61.9299C101.781 61.3436 102.083 60.6764 102.083 59.8474C102.083 59.0184 101.922 58.2704 100.026 58.2704H92.9847L99.037 43.2883H114.471C115.52 43.2883 116.347 42.985 117.033 42.3582C117.678 41.7719 117.981 41.0642 117.981 40.1746C117.981 39.6894 117.981 38.6986 115.096 38.6986L115.136 38.6582ZM74.4442 89.9531C73.2136 92.8444 71.6198 95.1695 69.7032 96.8679C67.6858 98.6674 65.4867 99.5772 63.207 99.5772C61.472 99.5772 59.9791 99.0313 58.7888 97.9597C57.5379 96.8477 56.8924 95.4324 56.8924 93.7744C56.8924 91.5504 57.9011 87.8301 64.6394 87.8301H75.3319L74.4442 89.9329V89.9531Z" fill="#68E6F9"/>
<path d="M117.073 83.928L130.651 50.466C130.893 49.8594 131.014 49.3135 131.014 48.8687C131.014 48.4441 130.873 48.1408 130.55 47.8375C130.207 47.514 129.824 47.3523 129.319 47.3523C127.806 47.3523 126.797 48.161 126.051 49.9807L112.857 82.5329C112.11 84.4132 112.05 85.0804 112.05 85.2422C112.05 86.0509 112.292 86.5968 112.857 87.0619C113.482 87.5673 114.41 87.8302 115.621 87.8302H121.35C122.702 87.8302 123.731 87.5673 124.397 87.0619C124.962 86.617 125.224 86.0711 125.224 85.2422C125.224 84.7569 125.224 83.928 122.702 83.928H117.114H117.073Z" fill="#68E6F9"/>
<path d="M119.494 97.9192C118.465 99.476 117.94 101.174 117.94 102.974C117.94 105.582 118.868 107.685 120.765 109.444C122.702 111.223 125.042 112.092 127.907 112.092C132.688 112.092 136.239 109.747 138.781 104.935C140.354 102.003 141.444 99.6377 142.029 97.8989L142.372 96.8678H148.606C149.957 96.8678 150.986 96.6049 151.652 96.0995C152.217 95.6547 152.479 95.1088 152.479 94.2798C152.479 93.7945 152.479 92.9656 149.957 92.9656H144.026L153.185 70.4419C153.407 69.8556 153.528 69.3299 153.528 68.9053C153.528 68.42 153.387 68.0763 153.044 67.7528C152.701 67.4293 152.298 67.2676 151.753 67.2676C150.2 67.2676 149.171 68.0965 148.404 69.9364L148.122 70.7654L143.845 81.2589C143.461 82.2901 142.574 83.1999 141.242 83.948C138.801 85.3229 136.017 85.3633 134.746 84.0289C134.383 83.6447 133.959 82.9371 134.02 81.8453C134.04 81.4409 134.161 80.8141 134.887 78.9944L138.014 71.3518C138.68 69.6938 138.72 69.0873 138.72 68.9255C138.72 68.42 138.579 68.0763 138.256 67.773C137.913 67.4495 137.51 67.2878 136.965 67.2878C135.432 67.2878 134.403 68.1168 133.616 69.9567L133.273 70.8059L129.803 79.3988C128.714 82.1081 128.552 83.3819 128.552 83.9076C128.552 85.2825 129.057 86.3743 130.106 87.2437C131.256 88.1737 132.749 88.6388 134.665 88.6388C135.775 88.6388 137.026 88.3557 138.397 87.7694L141.746 86.3743L139.083 92.9858H132.87C128.714 92.9858 125.587 93.471 123.549 94.4011C121.874 95.1896 120.482 96.3825 119.454 97.9596L119.494 97.9192ZM131.417 96.8476H138.256L137.227 99.011C135.694 102.246 134.302 104.47 132.97 105.804C131.478 107.301 129.743 108.069 127.786 108.069C126.252 108.069 125.002 107.584 124.033 106.633C123.065 105.683 122.581 104.43 122.581 102.933C122.581 100.649 123.731 96.8273 131.417 96.8273V96.8476Z" fill="#68E6F9"/>
<path d="M163.717 87.8301C166.319 87.8301 168.417 87.082 170.152 85.5252C171.827 84.0088 172.634 82.1891 172.634 79.9448C172.634 77.8825 171.807 75.6585 170.152 73.3737L168.337 70.8666C167.146 69.2087 166.561 67.5103 166.561 65.8726C166.561 65.4278 166.622 64.9223 166.702 64.3562C166.763 64.0731 166.864 63.5272 166.864 63.3655C166.864 63.0622 166.743 62.8196 166.46 62.5769C166.137 62.2939 165.795 62.1523 165.351 62.1523C165.008 62.1523 163.959 62.1523 162.829 64.4168L158.612 73.0098C157.947 74.3442 157.846 75.0317 157.846 75.2945C157.846 75.436 157.846 75.7798 158.37 76.2448C158.774 76.6087 159.218 76.7705 159.702 76.7705C160.146 76.7705 161.296 76.7705 162.304 74.506L164.14 70.0376L167.045 75.6989C167.711 76.9929 168.034 78.1251 168.034 79.1563C168.034 80.5716 167.449 83.8875 162.103 83.8875H158.411C157.079 83.8875 156.07 84.1503 155.384 84.676C154.799 85.1208 154.537 85.6869 154.537 86.5159C154.537 87.0012 154.537 87.8099 157.059 87.8099H163.717V87.8301Z" fill="#68E6F9"/>
<path d="M188.349 56.3091C187.522 56.3091 186.857 56.5719 186.292 57.1583C185.727 57.7446 185.444 58.3916 185.444 59.2206C185.444 60.0495 185.707 60.7168 186.292 61.2829C187.421 62.4151 189.278 62.4151 190.427 61.2829C191.013 60.6965 191.275 60.0495 191.275 59.2206C191.275 58.3916 191.013 57.7244 190.427 57.1583C189.842 56.5921 189.197 56.3091 188.37 56.3091H188.349Z" fill="#68E6F9"/>
<path d="M186.271 66.4792C184.738 66.4792 183.709 67.3082 182.963 69.1279L182.62 69.9973L177.374 82.9575C176.89 84.1302 176.81 84.7772 176.81 85.0602C176.81 85.8892 177.112 86.4756 177.778 86.9608C178.585 87.5269 179.775 87.8302 181.309 87.8302H186.372C187.724 87.8302 188.753 87.5674 189.419 87.0619C189.984 86.6171 190.246 86.0712 190.246 85.2422C190.246 84.757 190.246 83.928 187.744 83.928H181.914L187.3 70.5634C187.966 68.9055 188.047 68.2181 188.047 68.0159C188.047 67.6115 187.906 67.3082 187.563 67.0049C187.199 66.6612 186.796 66.5197 186.271 66.5197V66.4792Z" fill="#68E6F9"/>
<path d="M234.489 87.83H241.146C242.478 87.83 243.507 87.5672 244.172 87.0617C244.737 86.6371 245 86.071 245 85.242C245 84.7568 245 83.9278 242.478 83.9278H236.405L240.723 73.2725C241.106 72.302 241.308 71.3922 241.308 70.6239C241.308 69.3097 240.844 68.2381 239.875 67.3889C238.867 66.479 237.575 66.0544 235.941 66.0544C234.226 66.0544 232.37 66.8228 230.373 68.3594L228.9 69.4916L228.093 67.8135C227.649 66.8834 227.004 66.4993 225.955 66.4993C224.603 66.4993 223.715 67.1665 223.13 68.6424L216.352 85.3835C216.089 86.0103 215.948 86.5562 215.948 86.9404C215.948 87.3043 216.069 87.5672 216.372 87.83C216.735 88.1333 217.159 88.295 217.703 88.295C219.277 88.295 220.427 87.2639 221.335 85.0398L225.087 75.7796C226.681 71.8774 228.92 69.896 231.765 69.896C232.794 69.896 233.682 70.1993 234.408 70.7856C235.215 71.4528 235.618 72.3222 235.578 73.313C235.538 73.96 235.356 74.6878 234.993 75.5775L232.209 82.5125C231.523 84.1704 231.422 84.8983 231.422 85.2016C231.422 85.9497 231.684 86.536 232.229 87.0415C232.834 87.5672 233.561 87.83 234.489 87.83Z" fill="#68E6F9"/>
</g>
<defs>
<clipPath id="clip0_137_579">
<rect width="245" height="159" fill="white"/>
</clipPath>
</defs>
</svg>
