<svg width="30" height="38" viewBox="0 0 30 38" fill="none" xmlns="http://www.w3.org/2000/svg">
<g clip-path="url(#clip0_147_589)">
<path d="M20.2304 0.590131C24.6804 0.160131 28.8904 2.99013 29.6704 7.47013C30.7004 13.3801 26.0304 18.1301 20.1604 17.6401L8.14041 28.0701C6.76041 28.9901 4.95041 28.9501 3.57041 28.0701C3.44041 28.0901 2.12041 29.5401 1.97041 29.7501C0.700413 31.6401 2.19041 34.0701 4.46041 33.7401C5.88041 33.5301 6.52041 32.0401 7.63041 31.2901C10.7604 29.1901 14.3204 33.0301 11.7904 36.1001C11.5504 36.3901 10.0504 37.9001 9.80041 37.9501C9.32041 38.0601 8.85041 37.7801 8.83041 37.2601C8.81041 36.5601 10.4304 35.4801 10.8404 34.8701C11.9404 33.2401 9.96041 31.3601 8.36041 32.5801C7.37041 33.3401 6.87041 34.4501 5.58041 34.9501C2.27041 36.2301 -0.879587 33.2401 0.220413 29.8701C0.620413 28.6401 1.65041 27.9801 2.46041 27.0501C2.50041 26.8901 2.20041 26.5101 2.12041 26.3001C1.56041 24.7801 1.74041 23.2901 2.75041 22.0201L12.6704 10.3301C12.8204 9.14013 12.6904 8.11013 12.9904 6.91013C13.8204 3.65013 16.8404 0.920131 20.2304 0.590131ZM20.3204 2.09013C19.1204 2.23013 17.6004 2.90013 16.6904 3.70013C16.5204 3.85013 15.9904 4.31013 16.0504 4.52013L26.0004 14.3101C31.0604 9.59013 27.2804 1.30013 20.3204 2.08013V2.09013ZM24.7404 15.2501L15.1004 5.76013C14.2704 7.04013 14.1704 8.56013 14.2804 10.0501L20.4104 16.0901C21.9604 16.2501 23.3704 15.9801 24.7404 15.2701V15.2501ZM13.5604 11.6101L3.70041 23.2701C2.28041 25.6301 4.78041 28.2901 7.22041 26.8801L18.8104 16.8401L18.7604 16.6001L13.5604 11.6001V11.6101Z" fill="#EE96FF"/>
<path d="M12.5498 17.0501C13.2298 16.9201 13.6198 17.6001 13.3098 18.1901C12.9698 18.8401 11.4998 19.8101 11.0398 20.5001C10.3598 20.8901 9.58982 20.2401 9.96982 19.5201C10.6298 19.0301 11.8198 17.1901 12.5498 17.0501Z" fill="#EE96FF"/>
</g>
<defs>
<clipPath id="clip0_147_589">
<rect width="29.81" height="37.45" fill="white" transform="translate(0 0.550049)"/>
</clipPath>
</defs>
</svg>
