<?xml version="1.0" encoding="UTF-8"?>
<svg id="_圖層_1" data-name="圖層 1" xmlns="http://www.w3.org/2000/svg" viewBox="0 0 339.98 383.46">
  <defs>
    <style>
      .cls-1 {
        fill: #fff;
      }
    </style>
  </defs>
  <path class="cls-1" d="M39.38,383.33c-33.8-4.05-50.38-43.67-31.37-71.36,1.24-1.81,7.84-8.6,8.01-9.26.28-1.08-1.25-4.53-1.42-6.55-.6-7.04.62-9.69,4.24-15.29,4.92-7.63,11.81-15.41,17.53-22.54,7.63,16.98,26.1,36.57,43.22,44.1.47.21,1.6-.16,1.04,1.18-.51,1.2-18.22,14.29-20.76,15.97-7.57,4.99-13.59,7.7-22.69,3.45l-1.18.36c-16.85,13.28-1.89,39.19,17.88,29.13,3.45-1.75,5.23-4.8,8.07-6.91,20.9-15.53,49.16-15.97,69.33,1.04,2.8,2.36,13.73,12.9,15.24,15.48,4.76,8.09.09,17.84-8.14,21.22h-8.25c-9.78-5.01-15.1-16.72-26.24-19.85-21.3-5.99-26.01,10.9-42.37,16.87-3.58,1.31-7.29,1.82-10.89,2.98-3.59-.3-7.75.42-11.25,0Z"/>
  <path class="cls-1" d="M249.98.3c67.32-5.54,112.83,66.95,78,125.01-12.58,20.97-37.72,37.73-62.49,39.43-7.95.55-9.89-.16-16.62-3.6-27.27-13.94-54.41-43.53-67.66-70.96-4.52-9.37-7.04-13.62-4.99-24.26C182.96,30.9,214.42,3.23,249.98.3Z"/>
  <path class="cls-1" d="M160.87,95.14c16.28,37.03,46.14,67.51,81.76,86.45-18.84,16.62-37.85,33.2-57.39,49.01-21.98,17.79-48.67,40.13-72.12,55.27-21.67,13.99-37.96,1.37-52.72-15.23-15.55-17.49-17.65-28.55-4.06-48.18,27.19-39.27,62.58-81.83,94.41-117.61,1.8-2.03,6.56-7.83,8.25-8.98.63-.43.73-1.05,1.87-.74ZM157.68,164.94c-1.11.19-2.27.72-3.31,1.18-3.95,1.78-25.92,23.76-29.51,28.18-12.38,15.25,4.83,31.55,18.7,21.66,3.7-2.63,28.04-27.13,29.62-30.33,5.4-10.96-3.41-22.76-15.5-20.7Z"/>
</svg>