<?xml version="1.0" encoding="UTF-8"?>
<svg id="_圖層_1" data-name="圖層 1" xmlns="http://www.w3.org/2000/svg" viewBox="0 0 384.25 383.4">
  <defs>
    <style>
      .cls-1 {
        fill: #fff;
      }
    </style>
  </defs>
  <path class="cls-1" d="M384.25,99.57v199.86c-3.73,20.41-19.75,36.97-40.97,38.83-18.86,1.65-37.65-9.25-45.17-26.58-14.73-33.97,14.79-69.81,50.92-62.05,4.56.98,8.56,2.98,12.72,4.89v-92.07l-136.43,38.25-.04,140.31c-1.14,16.58-11.84,32.23-27.27,38.65-4.07,1.7-8.32,2.37-12.51,3.61-3.59-.3-7.75.42-11.25,0-12.74-1.53-26.52-11.27-32.85-22.23-20.53-35.52,12.99-77.46,52.19-65.56,3.21.97,6.09,2.72,9.16,3.95v-154.57c0-1.91,4.98-8,7.65-8.08l160.15-45.26c6.91-.96,10.88,2.06,13.7,8.05Z"/>
  <path class="cls-1" d="M.25,220.08c3.28-27.33,32.43-44.75,58.34-36.89,3.21.97,6.09,2.72,9.16,3.95V8.62c0-.67,2.32-4.51,3.01-5.23,4.24-4.49,11.64-4.42,16.13-.39s12.05,18.42,16.25,24.2c8.71,12,19.59,23.89,30.6,33.83,18.93,17.09,40.18,25.31,45.54,53.36,6.14,32.16-17.97,65.09-51.12,66.8-8.93.46-17.72-4-15.05-14.27s13.34-7.39,20.98-9.75c19.88-6.14,29.35-29.11,20.05-47.62-5.06-10.08-18.78-17.71-27.49-24.96-13.13-10.93-25.12-23.11-36.39-35.91v183.02c0,9.11-9.53,23.51-16.49,29.2-26.67,21.81-69.37,5.58-73.51-28.83-.33-2.76-.33-9.21,0-11.98Z"/>
</svg>